Bungee_Layers_Rotated-Inline.ufo
<glyph name="exclam" format="1">
  <advance width="830"/>
  <unicode hex="0021"/>
  <outline>
    <contour>
      <point x="695.0" y="366" type="line"/>
      <point x="652.0" y="366" type="line"/>
      <point x="652.0" y="356" type="line"/>
      <point x="695.0" y="356" type="line"/>
    </contour>
    <contour>
      <point x="145.0" y="356" type="line"/>
      <point x="423.0" y="356" type="line"/>
      <point x="423.0" y="366" type="line"/>
      <point x="145.0" y="366" type="line"/>
    </contour>
  </outline>
</glyph>
<glyph name="ampersand" format="1">
  <advance width="834"/>
  <unicode hex="0026"/>
  <unicode hex="FF06"/>
  <outline>
    <contour>
      <point x="513.0" y="150" type="curve" smooth="yes"/>
      <point x="574.0" y="150" type="line" smooth="yes"/>
      <point x="648.0" y="150"/>
      <point x="682.0" y="188"/>
      <point x="682.0" y="267" type="curve" smooth="yes"/>
      <point x="682.0" y="473" type="line" smooth="yes"/>
      <point x="682.0" y="532"/>
      <point x="653.0" y="566"/>
      <point x="591.0" y="566" type="curve" smooth="yes"/>
      <point x="466.0" y="566" type="line"/>
      <point x="466.0" y="631" type="line"/>
      <point x="456.0" y="631" type="line"/>
      <point x="456.0" y="556" type="line"/>
      <point x="591.0" y="556" type="line" smooth="yes"/>
      <point x="645.0" y="556"/>
      <point x="672.0" y="526"/>
      <point x="672.0" y="473" type="curve" smooth="yes"/>
      <point x="672.0" y="273" type="line" smooth="yes"/>
      <point x="672.0" y="194"/>
      <point x="642.0" y="160"/>
      <point x="574.0" y="160" type="curve" smooth="yes"/>
      <point x="513.0" y="160" type="line" smooth="yes"/>
      <point x="453.0" y="160"/>
      <point x="409.0" y="196"/>
      <point x="409.0" y="272" type="curve" smooth="yes"/>
      <point x="409.0" y="339" type="line"/>
      <point x="399.0" y="339" type="line"/>
      <point x="399.0" y="329" type="line" smooth="yes"/>
      <point x="399.0" y="266"/>
      <point x="368.0" y="237"/>
      <point x="303.0" y="237" type="curve" smooth="yes"/>
      <point x="254.0" y="237" type="line" smooth="yes"/>
      <point x="182.0" y="237"/>
      <point x="152.0" y="270"/>
      <point x="152.0" y="345" type="curve" smooth="yes"/>
      <point x="152.0" y="430" type="line"/>
      <point x="142.0" y="430" type="line"/>
      <point x="142.0" y="345" type="line" smooth="yes"/>
      <point x="142.0" y="264"/>
      <point x="174.0" y="227"/>
      <point x="252.0" y="227" type="curve" smooth="yes"/>
      <point x="303.0" y="227" type="line" smooth="yes"/>
      <point x="355.0" y="227"/>
      <point x="386.0" y="244"/>
      <point x="400.0" y="279" type="curve"/>
      <point x="400.0" y="272" type="line" smooth="yes"/>
      <point x="400.0" y="189"/>
      <point x="447.0" y="150"/>
    </contour>
  </outline>
</glyph>
<glyph name="parenleft" format="1">
  <advance width="429"/>
  <unicode hex="0028"/>
  <outline>
    <contour>
      <point x="294.0" y="22" type="line"/>
      <point x="215.0" y="22"/>
      <point x="167.0" y="43"/>
      <point x="167.0" y="125" type="curve" smooth="yes"/>
      <point x="167.0" y="596" type="line" smooth="yes"/>
      <point x="167.0" y="678"/>
      <point x="214.0" y="699"/>
      <point x="294.0" y="699" type="curve"/>
      <point x="294.0" y="709" type="line"/>
      <point x="206.0" y="709"/>
      <point x="157.0" y="684"/>
      <point x="157.0" y="596" type="curve" smooth="yes"/>
      <point x="157.0" y="125" type="line" smooth="yes"/>
      <point x="157.0" y="37"/>
      <point x="207.0" y="12"/>
      <point x="294.0" y="12" type="curve"/>
    </contour>
  </outline>
</glyph>
<glyph name="hyphen" format="1">
  <advance width="420"/>
  <unicode hex="002D"/>
  <unicode hex="00AD"/>
  <unicode hex="2010"/>
  <outline>
    <contour>
      <point x="290.0" y="366" type="line"/>
      <point x="130.0" y="366" type="line"/>
      <point x="130.0" y="356" type="line"/>
      <point x="290.0" y="356" type="line"/>
    </contour>
  </outline>
</glyph>
<glyph name="four" format="1">
  <advance width="842"/>
  <unicode hex="0034"/>
  <outline>
    <contour>
      <point x="157.0" y="169" type="line"/>
      <point x="415.0" y="169" type="line" smooth="yes"/>
      <point x="485.0" y="169"/>
      <point x="520.0" y="203"/>
      <point x="520.0" y="280" type="curve" smooth="yes"/>
      <point x="520.0" y="542" type="line"/>
      <point x="697.0" y="542" type="line"/>
      <point x="697.0" y="552" type="line"/>
      <point x="157.0" y="552" type="line"/>
      <point x="157.0" y="542" type="line"/>
      <point x="510.0" y="542" type="line"/>
      <point x="510.0" y="280" type="line" smooth="yes"/>
      <point x="510.0" y="211"/>
      <point x="479.0" y="179"/>
      <point x="415.0" y="179" type="curve" smooth="yes"/>
      <point x="157.0" y="179" type="line"/>
    </contour>
  </outline>
</glyph>
<glyph name="seven" format="1">
  <advance width="857"/>
  <unicode hex="0037"/>
  <outline>
    <contour>
      <point x="180.0" y="150" type="line"/>
      <point x="180.0" y="541" type="line"/>
      <point x="400.0" y="541" type="line" smooth="yes"/>
      <point x="425.0" y="541"/>
      <point x="441.0" y="532"/>
      <point x="446.0" y="512" type="curve" smooth="yes"/>
      <point x="494.0" y="304" type="line" smooth="yes"/>
      <point x="499.0" y="283"/>
      <point x="519.0" y="269"/>
      <point x="550.0" y="269" type="curve" smooth="yes"/>
      <point x="710.0" y="269" type="line"/>
      <point x="710.0" y="279" type="line"/>
      <point x="550.0" y="279" type="line" smooth="yes"/>
      <point x="525.0" y="279"/>
      <point x="508.0" y="291"/>
      <point x="504.0" y="308" type="curve" smooth="yes"/>
      <point x="456.0" y="516" type="line" smooth="yes"/>
      <point x="450.0" y="540"/>
      <point x="431.0" y="551"/>
      <point x="400.0" y="551" type="curve" smooth="yes"/>
      <point x="170.0" y="551" type="line"/>
      <point x="170.0" y="150" type="line"/>
    </contour>
  </outline>
</glyph>
<glyph name="nine" format="1">
  <advance width="860"/>
  <unicode hex="0039"/>
  <unicode hex="FF19"/>
  <outline>
    <contour>
      <point x="338.0" y="173" type="curve" smooth="yes"/>
      <point x="270.0" y="173" type="line" smooth="yes"/>
      <point x="187.0" y="173"/>
      <point x="154.0" y="224"/>
      <point x="154.0" y="353" type="curve" smooth="yes"/>
      <point x="154.0" y="492"/>
      <point x="187.0" y="547"/>
      <point x="270.0" y="547" type="curve" smooth="yes"/>
      <point x="341.0" y="547" type="line"/>
      <point x="416.0" y="547"/>
      <point x="446.0" y="492"/>
      <point x="446.0" y="350" type="curve" smooth="yes"/>
      <point x="446.0" y="223"/>
      <point x="416.0" y="173"/>
    </contour>
    <contour>
      <point x="338.0" y="163" type="line" smooth="yes"/>
      <point x="423.0" y="163"/>
      <point x="456.0" y="216"/>
      <point x="456.0" y="350" type="curve" smooth="yes"/>
      <point x="456.0" y="465"/>
      <point x="437.0" y="526"/>
      <point x="389.0" y="547" type="curve"/>
      <point x="588.0" y="547" type="line" smooth="yes"/>
      <point x="671.0" y="547"/>
      <point x="693.0" y="500"/>
      <point x="693.0" y="423" type="curve" smooth="yes"/>
      <point x="693.0" y="221" type="line"/>
      <point x="703.0" y="221" type="line"/>
      <point x="703.0" y="423" type="line" smooth="yes"/>
      <point x="703.0" y="508"/>
      <point x="677.0" y="557"/>
      <point x="588.0" y="557" type="curve" smooth="yes"/>
      <point x="270.0" y="557" type="line" smooth="yes"/>
      <point x="179.0" y="557"/>
      <point x="144.0" y="500"/>
      <point x="144.0" y="353" type="curve" smooth="yes"/>
      <point x="144.0" y="216"/>
      <point x="179.0" y="163"/>
      <point x="270.0" y="163" type="curve" smooth="yes"/>
    </contour>
  </outline>
</glyph>
<glyph name="less" format="1">
  <advance width="726"/>
  <unicode hex="003C"/>
  <outline>
    <contour>
      <point x="546.0" y="537" type="line"/>
      <point x="460.0" y="239" type="line" smooth="yes"/>
      <point x="452.0" y="211"/>
      <point x="437.0" y="189"/>
      <point x="399.0" y="189" type="curve" smooth="yes"/>
      <point x="327.0" y="189" type="line" smooth="yes"/>
      <point x="289.0" y="189"/>
      <point x="277.0" y="211"/>
      <point x="269.0" y="239" type="curve" smooth="yes"/>
      <point x="183.0" y="537" type="line"/>
      <point x="173.0" y="537" type="line"/>
      <point x="259.0" y="237" type="line" smooth="yes"/>
      <point x="269.0" y="203"/>
      <point x="283.0" y="179"/>
      <point x="327.0" y="179" type="curve" smooth="yes"/>
      <point x="399.0" y="179" type="line" smooth="yes"/>
      <point x="443.0" y="179"/>
      <point x="460.0" y="203"/>
      <point x="470.0" y="237" type="curve" smooth="yes"/>
      <point x="556.0" y="537" type="line"/>
    </contour>
  </outline>
</glyph>
<glyph name="question" format="1">
  <advance width="847"/>
  <unicode hex="003F"/>
  <unicode hex="FF1F"/>
  <outline>
    <contour>
      <point x="452.0" y="257" type="line"/>
      <point x="422.0" y="473" type="line" smooth="yes"/>
      <point x="418.0" y="504"/>
      <point x="409.0" y="530"/>
      <point x="368.0" y="530" type="curve" smooth="yes"/>
      <point x="255.0" y="530" type="line" smooth="yes"/>
      <point x="182.0" y="530"/>
      <point x="164.0" y="482"/>
      <point x="164.0" y="436" type="curve" smooth="yes"/>
      <point x="164.0" y="167" type="line"/>
      <point x="174.0" y="167" type="line"/>
      <point x="174.0" y="436" type="line" smooth="yes"/>
      <point x="174.0" y="477"/>
      <point x="190.0" y="520"/>
      <point x="255.0" y="520" type="curve" smooth="yes"/>
      <point x="368.0" y="520" type="line" smooth="yes"/>
      <point x="403.0" y="520"/>
      <point x="408.0" y="496"/>
      <point x="412.0" y="471" type="curve" smooth="yes"/>
      <point x="441.0" y="255" type="line"/>
    </contour>
    <contour>
      <point x="712.0" y="280" type="line"/>
      <point x="712.0" y="290" type="line"/>
      <point x="669.0" y="290" type="line"/>
      <point x="669.0" y="280" type="line"/>
    </contour>
  </outline>
</glyph>
<glyph name="A" format="1">
  <advance width="849"/>
  <unicode hex="0041"/>
  <outline>
    <contour>
      <point x="692.0" y="164" type="line"/>
      <point x="692.0" y="174" type="line"/>
      <point x="520.0" y="174" type="line"/>
      <point x="520.0" y="543" type="line"/>
      <point x="692.0" y="543" type="line"/>
      <point x="692.0" y="553" type="line"/>
      <point x="479.0" y="553" type="line" smooth="yes"/>
      <point x="442.0" y="553"/>
      <point x="411.0" y="547"/>
      <point x="382.0" y="536" type="curve" smooth="yes"/>
      <point x="219.0" y="467" type="line" smooth="yes"/>
      <point x="180.0" y="451"/>
      <point x="152.0" y="439"/>
      <point x="152.0" y="395" type="curve" smooth="yes"/>
      <point x="152.0" y="318" type="line" smooth="yes"/>
      <point x="152.0" y="272"/>
      <point x="181.0" y="260"/>
      <point x="218.0" y="245" type="curve" smooth="yes"/>
      <point x="382.0" y="181" type="line"/>
      <point x="411.0" y="170"/>
      <point x="442.0" y="164"/>
      <point x="479.0" y="164" type="curve" smooth="yes"/>
    </contour>
    <contour>
      <point x="479.0" y="174" type="line"/>
      <point x="443.0" y="174"/>
      <point x="413.0" y="180"/>
      <point x="386.0" y="190" type="curve"/>
      <point x="222.0" y="254" type="line"/>
      <point x="188.0" y="267"/>
      <point x="162.0" y="278"/>
      <point x="162.0" y="318" type="curve" smooth="yes"/>
      <point x="162.0" y="395" type="line" smooth="yes"/>
      <point x="162.0" y="432"/>
      <point x="188.0" y="443"/>
      <point x="223.0" y="458" type="curve"/>
      <point x="386.0" y="527" type="line"/>
      <point x="413.0" y="537"/>
      <point x="443.0" y="543"/>
      <point x="479.0" y="543" type="curve"/>
      <point x="510.0" y="543" type="line"/>
      <point x="510.0" y="174" type="line"/>
    </contour>
  </outline>
</glyph>
<glyph name="C" format="1">
  <advance width="864"/>
  <unicode hex="0043"/>
  <unicode hex="FF23"/>
  <outline>
    <contour>
      <point x="692.0" y="561" type="line"/>
      <point x="692.0" y="325" type="line" smooth="yes"/>
      <point x="692.0" y="205"/>
      <point x="660.0" y="175"/>
      <point x="573.0" y="175" type="curve" smooth="yes"/>
      <point x="293.0" y="175" type="line" smooth="yes"/>
      <point x="204.0" y="175"/>
      <point x="172.0" y="207"/>
      <point x="172.0" y="325" type="curve" smooth="yes"/>
      <point x="172.0" y="561" type="line"/>
      <point x="162.0" y="561" type="line"/>
      <point x="162.0" y="325" type="line" smooth="yes"/>
      <point x="162.0" y="197"/>
      <point x="198.0" y="165"/>
      <point x="293.0" y="165" type="curve" smooth="yes"/>
      <point x="573.0" y="165" type="line" smooth="yes"/>
      <point x="666.0" y="165"/>
      <point x="702.0" y="195"/>
      <point x="702.0" y="325" type="curve" smooth="yes"/>
      <point x="702.0" y="561" type="line"/>
    </contour>
  </outline>
</glyph>
<glyph name="G" format="1">
  <advance width="859"/>
  <unicode hex="0047"/>
  <unicode hex="FF27"/>
  <outline>
    <contour>
      <point x="288.0" y="164" type="curve" smooth="yes"/>
      <point x="568.0" y="164" type="line" smooth="yes"/>
      <point x="661.0" y="164"/>
      <point x="697.0" y="197"/>
      <point x="697.0" y="344" type="curve" smooth="yes"/>
      <point x="697.0" y="552" type="line"/>
      <point x="496.0" y="552" type="line"/>
      <point x="496.0" y="542" type="line"/>
      <point x="687.0" y="542" type="line"/>
      <point x="687.0" y="344" type="line" smooth="yes"/>
      <point x="687.0" y="209"/>
      <point x="655.0" y="174"/>
      <point x="568.0" y="174" type="curve" smooth="yes"/>
      <point x="288.0" y="174" type="line" smooth="yes"/>
      <point x="199.0" y="174"/>
      <point x="167.0" y="206"/>
      <point x="167.0" y="324" type="curve" smooth="yes"/>
      <point x="167.0" y="505" type="line"/>
      <point x="157.0" y="505" type="line"/>
      <point x="157.0" y="324" type="line" smooth="yes"/>
      <point x="157.0" y="196"/>
      <point x="193.0" y="164"/>
    </contour>
    <contour>
      <point x="40.0" y="351.0" type="move" name="top"/>
    </contour>
    <contour>
      <point x="787.0" y="351.0" type="move" name="bottom"/>
    </contour>
  </outline>
</glyph>
<glyph name="I" format="1">
  <advance width="880"/>
  <unicode hex="0049"/>
  <outline>
    <contour>
      <point x="700.0" y="159" type="line"/>
      <point x="710.0" y="159" type="line"/>
      <point x="710.0" y="561" type="line"/>
      <point x="700.0" y="561" type="line"/>
      <point x="700.0" y="365" type="line"/>
      <point x="180.0" y="365" type="line"/>
      <point x="180.0" y="561" type="line"/>
      <point x="170.0" y="561" type="line"/>
      <point x="170.0" y="159" type="line"/>
      <point x="180.0" y="159" type="line"/>
      <point x="180.0" y="355" type="line"/>
      <point x="700.0" y="355" type="line"/>
    </contour>
  </outline>
</glyph>
<glyph name="L" format="1">
  <advance width="855"/>
  <unicode hex="004C"/>
  <unicode hex="FF2C"/>
  <outline>
    <contour>
      <point x="145.0" y="170" type="line"/>
      <point x="685.0" y="170" type="line"/>
      <point x="685.0" y="557" type="line"/>
      <point x="478.0" y="557" type="line"/>
      <point x="478.0" y="547" type="line"/>
      <point x="675.0" y="547" type="line"/>
      <point x="675.0" y="180" type="line"/>
      <point x="145.0" y="180" type="line"/>
    </contour>
  </outline>
</glyph>
<glyph name="M" format="1">
  <advance width="854"/>
  <unicode hex="004D"/>
  <outline>
    <contour>
      <point x="422.0" y="356" type="curve"/>
      <point x="422.0" y="337"/>
      <point x="416.0" y="331"/>
      <point x="380.0" y="315" type="curve" smooth="yes"/>
      <point x="174.0" y="222" type="line" smooth="yes"/>
      <point x="160.0" y="216"/>
      <point x="157.0" y="201"/>
      <point x="157.0" y="189" type="curve" smooth="yes"/>
      <point x="157.0" y="172" type="line" smooth="yes"/>
      <point x="157.0" y="149"/>
      <point x="166.0" y="139"/>
      <point x="188.0" y="139" type="curve" smooth="yes"/>
      <point x="697.0" y="137" type="line"/>
      <point x="697.0" y="147" type="line"/>
      <point x="188.0" y="149" type="line" smooth="yes"/>
      <point x="177.0" y="149"/>
      <point x="167.0" y="153"/>
      <point x="167.0" y="172" type="curve" smooth="yes"/>
      <point x="167.0" y="187" type="line" smooth="yes"/>
      <point x="167.0" y="197"/>
      <point x="167.0" y="208"/>
      <point x="181.0" y="214" type="curve" smooth="yes"/>
      <point x="385.0" y="307" type="line" smooth="yes"/>
      <point x="423.0" y="324"/>
      <point x="432.0" y="332"/>
      <point x="432.0" y="356" type="curve"/>
      <point x="432.0" y="380"/>
      <point x="423.0" y="388"/>
      <point x="385.0" y="405" type="curve" smooth="yes"/>
      <point x="181.0" y="498" type="line" smooth="yes"/>
      <point x="167.0" y="504"/>
      <point x="167.0" y="515"/>
      <point x="167.0" y="525" type="curve" smooth="yes"/>
      <point x="167.0" y="544" type="line" smooth="yes"/>
      <point x="167.0" y="560"/>
      <point x="177.0" y="563"/>
      <point x="188.0" y="563" type="curve" smooth="yes"/>
      <point x="697.0" y="565" type="line"/>
      <point x="697.0" y="575" type="line"/>
      <point x="188.0" y="573" type="line" smooth="yes"/>
      <point x="166.0" y="573"/>
      <point x="157.0" y="564"/>
      <point x="157.0" y="544" type="curve" smooth="yes"/>
      <point x="157.0" y="523" type="line" smooth="yes"/>
      <point x="157.0" y="511"/>
      <point x="159.0" y="497"/>
      <point x="174.0" y="490" type="curve" smooth="yes"/>
      <point x="380.0" y="397" type="line" smooth="yes"/>
      <point x="418.0" y="380"/>
      <point x="422.0" y="375"/>
    </contour>
  </outline>
</glyph>
<glyph name="P" format="1">
  <advance width="847"/>
  <unicode hex="0050"/>
  <unicode hex="FF30"/>
  <outline>
    <contour>
      <point x="505.0" y="411" type="line" smooth="yes"/>
      <point x="505.0" y="537"/>
      <point x="450.0" y="561"/>
      <point x="372.0" y="561" type="curve" smooth="yes"/>
      <point x="298.0" y="561" type="line" smooth="yes"/>
      <point x="220.0" y="561"/>
      <point x="162.0" y="537"/>
      <point x="162.0" y="411" type="curve" smooth="yes"/>
      <point x="162.0" y="169" type="line"/>
      <point x="702.0" y="169" type="line"/>
      <point x="702.0" y="179" type="line"/>
      <point x="505.0" y="179" type="line"/>
    </contour>
    <contour>
      <point x="495.0" y="179" type="line"/>
      <point x="172.0" y="179" type="line"/>
      <point x="172.0" y="411" type="line" smooth="yes"/>
      <point x="172.0" y="529"/>
      <point x="226.0" y="551"/>
      <point x="298.0" y="551" type="curve" smooth="yes"/>
      <point x="372.0" y="551" type="line" smooth="yes"/>
      <point x="444.0" y="551"/>
      <point x="495.0" y="529"/>
      <point x="495.0" y="411" type="curve" smooth="yes"/>
    </contour>
  </outline>
</glyph>
<glyph name="U" format="1">
  <advance width="859"/>
  <unicode hex="0055"/>
  <outline>
    <contour>
      <point x="157" y="170" type="line"/>
      <point x="574" y="170" type="line" smooth="yes"/>
      <point x="655" y="170"/>
      <point x="709" y="210"/>
      <point x="709" y="357" type="curve" smooth="yes"/>
      <point x="709" y="510"/>
      <point x="655" y="553"/>
      <point x="574" y="553" type="curve" smooth="yes"/>
      <point x="157" y="553" type="line"/>
      <point x="157" y="543" type="line"/>
      <point x="574" y="543" type="line" smooth="yes"/>
      <point x="649" y="543"/>
      <point x="699" y="502"/>
      <point x="699" y="357" type="curve" smooth="yes"/>
      <point x="699" y="218"/>
      <point x="649" y="180"/>
      <point x="574" y="180" type="curve" smooth="yes"/>
      <point x="157" y="180" type="line"/>
    </contour>
  </outline>
</glyph>
<glyph name="X" format="1">
  <advance width="854"/>
  <unicode hex="0058"/>
  <outline>
    <contour>
      <point x="652" y="177" type="line" smooth="yes"/>
      <point x="624" y="177"/>
      <point x="597" y="179"/>
      <point x="579" y="191" type="curve" smooth="yes"/>
      <point x="417" y="299" type="line"/>
      <point x="417" y="421" type="line"/>
      <point x="579" y="530" type="line" smooth="yes"/>
      <point x="599" y="543"/>
      <point x="624" y="544"/>
      <point x="652" y="544" type="curve" smooth="yes"/>
      <point x="697" y="544" type="line"/>
      <point x="697" y="554" type="line"/>
      <point x="652" y="554" type="line" smooth="yes"/>
      <point x="623" y="554"/>
      <point x="596" y="553"/>
      <point x="575" y="539" type="curve" smooth="yes"/>
      <point x="413" y="429" type="line"/>
      <point x="249" y="539" type="line" smooth="yes"/>
      <point x="227" y="554"/>
      <point x="201" y="554"/>
      <point x="172" y="554" type="curve" smooth="yes"/>
      <point x="157" y="554" type="line"/>
      <point x="157" y="544" type="line"/>
      <point x="172" y="544" type="line" smooth="yes"/>
      <point x="200" y="544"/>
      <point x="226" y="543"/>
      <point x="245" y="530" type="curve" smooth="yes"/>
      <point x="407" y="422" type="line"/>
      <point x="407" y="301" type="line"/>
      <point x="245" y="191" type="line" smooth="yes"/>
      <point x="225" y="178"/>
      <point x="200" y="177"/>
      <point x="172" y="177" type="curve" smooth="yes"/>
      <point x="157" y="177" type="line"/>
      <point x="157" y="167" type="line"/>
      <point x="172" y="167" type="line" smooth="yes"/>
      <point x="201" y="167"/>
      <point x="228" y="168"/>
      <point x="249" y="182" type="curve" smooth="yes"/>
      <point x="411" y="292" type="line"/>
      <point x="575" y="182" type="line" smooth="yes"/>
      <point x="598" y="167"/>
      <point x="623" y="167"/>
      <point x="652" y="167" type="curve" smooth="yes"/>
      <point x="697" y="167" type="line"/>
      <point x="697" y="177" type="line"/>
    </contour>
    <contour>
      <point x="40.0" y="368.0" type="move" name="top"/>
    </contour>
    <contour>
      <point x="787.0" y="368.0" type="move" name="bottom"/>
    </contour>
  </outline>
</glyph>
<glyph name="Z" format="1">
  <advance width="880"/>
  <unicode hex="005A"/>
  <unicode hex="FF3A"/>
  <outline>
    <contour>
      <point x="256.0" y="545" type="line" smooth="yes"/>
      <point x="245.0" y="556"/>
      <point x="234.0" y="562"/>
      <point x="219.0" y="562" type="curve" smooth="yes"/>
      <point x="203.0" y="562" type="line" smooth="yes"/>
      <point x="180.0" y="562"/>
      <point x="170.0" y="553"/>
      <point x="170.0" y="531" type="curve" smooth="yes"/>
      <point x="170.0" y="158" type="line"/>
      <point x="180.0" y="158" type="line"/>
      <point x="180.0" y="531" type="line" smooth="yes"/>
      <point x="180.0" y="542"/>
      <point x="184.0" y="552"/>
      <point x="203.0" y="552" type="curve" smooth="yes"/>
      <point x="217.0" y="552" type="line" smooth="yes"/>
      <point x="230.0" y="552"/>
      <point x="237.0" y="549"/>
      <point x="248.0" y="538" type="curve" smooth="yes"/>
      <point x="624.0" y="167" type="line"/>
      <point x="636.0" y="157"/>
      <point x="646.0" y="150"/>
      <point x="661.0" y="150" type="curve" smooth="yes"/>
      <point x="677.0" y="150" type="line" smooth="yes"/>
      <point x="700.0" y="150"/>
      <point x="710.0" y="159"/>
      <point x="710.0" y="181" type="curve" smooth="yes"/>
      <point x="710.0" y="570" type="line"/>
      <point x="700.0" y="570" type="line"/>
      <point x="700.0" y="181" type="line" smooth="yes"/>
      <point x="700.0" y="170"/>
      <point x="696.0" y="160"/>
      <point x="677.0" y="160" type="curve" smooth="yes"/>
      <point x="663.0" y="160" type="line" smooth="yes"/>
      <point x="650.0" y="160"/>
      <point x="644.0" y="164"/>
      <point x="632.0" y="174" type="curve"/>
    </contour>
  </outline>
</glyph>
<glyph name="asciicircum" format="1">
  <advance width="686"/>
  <unicode hex="005E"/>
  <outline>
    <contour>
      <point x="516.0" y="533" type="line"/>
      <point x="213.0" y="446" type="line" smooth="yes"/>
      <point x="178.0" y="436"/>
      <point x="151.0" y="426"/>
      <point x="151.0" y="379" type="curve" smooth="yes"/>
      <point x="151.0" y="306" type="line" smooth="yes"/>
      <point x="151.0" y="259"/>
      <point x="177.0" y="249"/>
      <point x="214.0" y="239" type="curve" smooth="yes"/>
      <point x="516.0" y="153" type="line"/>
      <point x="516.0" y="164" type="line"/>
      <point x="216.0" y="249" type="line" smooth="yes"/>
      <point x="185.0" y="258"/>
      <point x="161.0" y="265"/>
      <point x="161.0" y="306" type="curve" smooth="yes"/>
      <point x="161.0" y="379" type="line" smooth="yes"/>
      <point x="161.0" y="420"/>
      <point x="186.0" y="428"/>
      <point x="215.0" y="436" type="curve" smooth="yes"/>
      <point x="516.0" y="522" type="line"/>
    </contour>
  </outline>
</glyph>
<glyph name="grave" format="1">
  <advance width="262"/>
  <unicode hex="0060"/>
  <outline>
    <contour>
      <point x="121.0" y="240" type="line"/>
      <point x="151.0" y="479" type="line"/>
      <point x="141.0" y="479" type="line"/>
      <point x="111.0" y="240" type="line"/>
    </contour>
    <contour>
      <point x="241.0" y="360.0" type="move" name="_top"/>
    </contour>
    <contour>
      <point x="988.0" y="360.0" type="move" name="_bottom"/>
    </contour>
  </outline>
</glyph>
<glyph name="braceleft" format="1">
  <advance width="455"/>
  <unicode hex="007B"/>
  <outline>
    <contour>
      <point x="320.0" y="12" type="curve"/>
      <point x="320.0" y="22" type="line"/>
      <point x="241.0" y="22"/>
      <point x="203.0" y="55"/>
      <point x="203.0" y="125" type="curve" smooth="yes"/>
      <point x="203.0" y="284" type="line"/>
      <point x="157.0" y="289"/>
      <point x="139.0" y="308"/>
      <point x="139.0" y="345" type="curve" smooth="yes"/>
      <point x="139.0" y="373" type="line" smooth="yes"/>
      <point x="139.0" y="410"/>
      <point x="156.0" y="429"/>
      <point x="203.0" y="434" type="curve"/>
      <point x="203.0" y="596" type="line" smooth="yes"/>
      <point x="203.0" y="675"/>
      <point x="240.0" y="699"/>
      <point x="320.0" y="699" type="curve"/>
      <point x="320.0" y="709" type="line"/>
      <point x="232.0" y="709"/>
      <point x="193.0" y="681"/>
      <point x="193.0" y="596" type="curve" smooth="yes"/>
      <point x="193.0" y="442" type="line"/>
      <point x="153.0" y="436"/>
      <point x="129.0" y="416"/>
      <point x="129.0" y="373" type="curve" smooth="yes"/>
      <point x="129.0" y="345" type="line" smooth="yes"/>
      <point x="129.0" y="303"/>
      <point x="153.0" y="282"/>
      <point x="193.0" y="276" type="curve"/>
      <point x="193.0" y="125" type="line" smooth="yes"/>
      <point x="193.0" y="49"/>
      <point x="233.0" y="12"/>
    </contour>
  </outline>
</glyph>
<glyph name="braceright" format="1">
  <advance width="455"/>
  <unicode hex="007D"/>
  <outline>
    <contour>
      <point x="262.0" y="125" type="curve" smooth="yes"/>
      <point x="262.0" y="276" type="line"/>
      <point x="302.0" y="282"/>
      <point x="326.0" y="303"/>
      <point x="326.0" y="345" type="curve" smooth="yes"/>
      <point x="326.0" y="373" type="line" smooth="yes"/>
      <point x="326.0" y="416"/>
      <point x="302.0" y="436"/>
      <point x="262.0" y="442" type="curve"/>
      <point x="262.0" y="596" type="line" smooth="yes"/>
      <point x="262.0" y="681"/>
      <point x="223.0" y="709"/>
      <point x="135.0" y="709" type="curve"/>
      <point x="135.0" y="699" type="line"/>
      <point x="215.0" y="699"/>
      <point x="252.0" y="675"/>
      <point x="252.0" y="596" type="curve" smooth="yes"/>
      <point x="252.0" y="434" type="line"/>
      <point x="299.0" y="429"/>
      <point x="316.0" y="410"/>
      <point x="316.0" y="373" type="curve" smooth="yes"/>
      <point x="316.0" y="345" type="line" smooth="yes"/>
      <point x="316.0" y="308"/>
      <point x="298.0" y="289"/>
      <point x="252.0" y="284" type="curve"/>
      <point x="252.0" y="125" type="line" smooth="yes"/>
      <point x="252.0" y="55"/>
      <point x="214.0" y="22"/>
      <point x="135.0" y="22" type="curve"/>
      <point x="135.0" y="12" type="line"/>
      <point x="222.0" y="12"/>
      <point x="262.0" y="49"/>
    </contour>
  </outline>
</glyph>
<glyph name="macron" format="1">
  <advance width="249"/>
  <unicode hex="00AF"/>
  <unicode hex="0304"/>
  <outline>
    <contour>
      <point x="120.0" y="240" type="line"/>
      <point x="130.0" y="240" type="line"/>
      <point x="130.0" y="479" type="line"/>
      <point x="120.0" y="479" type="line"/>
    </contour>
    <contour>
      <point x="220.0" y="360.0" type="move" name="_top"/>
    </contour>
    <contour>
      <point x="967.0" y="360.0" type="move" name="_bottom"/>
    </contour>
  </outline>
</glyph>
<glyph name="acute" format="1">
  <advance width="262"/>
  <unicode hex="00B4"/>
  <outline>
    <contour>
      <point x="141.0" y="240" type="line"/>
      <point x="151.0" y="240" type="line"/>
      <point x="121.0" y="479" type="line"/>
      <point x="111.0" y="479" type="line"/>
    </contour>
    <contour>
      <point x="241.0" y="360.0" type="move" name="_top"/>
    </contour>
    <contour>
      <point x="988.0" y="360.0" type="move" name="_bottom"/>
    </contour>
  </outline>
</glyph>
<glyph name="mu" format="1">
  <advance width="794"/>
  <unicode hex="00B5"/>
  <outline>
    <contour>
      <point x="637.0" y="173" type="line"/>
      <point x="637.0" y="183" type="line"/>
      <point x="478.0" y="183" type="line"/>
      <point x="528.0" y="201"/>
      <point x="559.0" y="251"/>
      <point x="559.0" y="362" type="curve" smooth="yes"/>
      <point x="559.0" y="509"/>
      <point x="505.0" y="553"/>
      <point x="424.0" y="553" type="curve" smooth="yes"/>
      <point x="157.0" y="553" type="line"/>
      <point x="157.0" y="543" type="line"/>
      <point x="424.0" y="543" type="line" smooth="yes"/>
      <point x="499.0" y="543"/>
      <point x="549.0" y="501"/>
      <point x="549.0" y="362" type="curve" smooth="yes"/>
      <point x="549.0" y="223"/>
      <point x="499.0" y="183"/>
      <point x="424.0" y="183" type="curve" smooth="yes"/>
      <point x="157.0" y="183" type="line"/>
      <point x="157.0" y="173" type="line"/>
    </contour>
  </outline>
</glyph>
<glyph name="cedilla" format="1">
  <advance width="301"/>
  <unicode hex="00B8"/>
  <outline>
    <contour>
      <point x="51.0" y="381" type="line"/>
      <point x="184.0" y="333" type="line"/>
      <point x="184.0" y="343" type="line"/>
      <point x="52.0" y="391" type="line"/>
    </contour>
    <contour>
      <point x="-599.0" y="360.0" type="move" name="_top"/>
    </contour>
    <contour>
      <point x="148.0" y="360.0" type="move" name="_bottom"/>
    </contour>
  </outline>
</glyph>
<glyph name="Aring" format="1">
  <advance width="1011"/>
  <unicode hex="00C5"/>
  <outline>
    <contour>
      <point x="854.0" y="164" type="line"/>
      <point x="854.0" y="174" type="line"/>
      <point x="682.0" y="174" type="line"/>
      <point x="682.0" y="543" type="line"/>
      <point x="854.0" y="543" type="line"/>
      <point x="854.0" y="553" type="line"/>
      <point x="641.0" y="553" type="line" smooth="yes"/>
      <point x="604.0" y="553"/>
      <point x="572.0" y="549"/>
      <point x="544.0" y="536" type="curve" smooth="yes"/>
      <point x="401.0" y="467" type="line" smooth="yes"/>
      <point x="364.0" y="449"/>
      <point x="334.0" y="439"/>
      <point x="334.0" y="395" type="curve" smooth="yes"/>
      <point x="334.0" y="318" type="line" smooth="yes"/>
      <point x="334.0" y="272"/>
      <point x="364.0" y="261"/>
      <point x="400.0" y="245" type="curve" smooth="yes"/>
      <point x="544.0" y="181" type="line"/>
      <point x="573.0" y="170"/>
      <point x="604.0" y="164"/>
      <point x="641.0" y="164" type="curve" smooth="yes"/>
    </contour>
    <contour>
      <point x="641.0" y="174" type="line"/>
      <point x="605.0" y="174"/>
      <point x="575.0" y="180"/>
      <point x="548.0" y="190" type="curve"/>
      <point x="404.0" y="254" type="line"/>
      <point x="370.0" y="267"/>
      <point x="344.0" y="278"/>
      <point x="344.0" y="318" type="curve" smooth="yes"/>
      <point x="344.0" y="395" type="line" smooth="yes"/>
      <point x="344.0" y="432"/>
      <point x="370.0" y="443"/>
      <point x="405.0" y="458" type="curve"/>
      <point x="548.0" y="527" type="line"/>
      <point x="575.0" y="537"/>
      <point x="605.0" y="543"/>
      <point x="641.0" y="543" type="curve"/>
      <point x="672.0" y="543" type="line"/>
      <point x="672.0" y="174" type="line"/>
    </contour>
    <contour>
      <point x="213.0" y="218" type="line" smooth="yes"/>
      <point x="273.0" y="218"/>
      <point x="313.0" y="240"/>
      <point x="313.0" y="359" type="curve" smooth="yes"/>
      <point x="313.0" y="478"/>
      <point x="273.0" y="502"/>
      <point x="213.0" y="502" type="curve" smooth="yes"/>
      <point x="174.0" y="502" type="line" smooth="yes"/>
      <point x="115.0" y="502"/>
      <point x="73.0" y="478"/>
      <point x="73.0" y="359" type="curve" smooth="yes"/>
      <point x="73.0" y="240"/>
      <point x="114.0" y="218"/>
      <point x="174.0" y="218" type="curve" smooth="yes"/>
    </contour>
    <contour>
      <point x="83.0" y="359" type="curve" smooth="yes"/>
      <point x="83.0" y="466"/>
      <point x="119.0" y="492"/>
      <point x="174.0" y="492" type="curve" smooth="yes"/>
      <point x="213.0" y="492" type="line" smooth="yes"/>
      <point x="269.0" y="492"/>
      <point x="303.0" y="466"/>
      <point x="303.0" y="359" type="curve" smooth="yes"/>
      <point x="303.0" y="252"/>
      <point x="269.0" y="228"/>
      <point x="213.0" y="228" type="curve" smooth="yes"/>
      <point x="174.0" y="228" type="line" smooth="yes"/>
      <point x="118.0" y="228"/>
      <point x="83.0" y="252"/>
    </contour>
  </outline>
</glyph>
<glyph name="Ccedilla" format="1">
  <advance width="905"/>
  <unicode hex="00C7"/>
  <outline>
    <contour>
      <point x="533" y="165" type="line" smooth="yes"/>
      <point x="626" y="165"/>
      <point x="662" y="195"/>
      <point x="662" y="325" type="curve" smooth="yes"/>
      <point x="662" y="398" type="line"/>
      <point x="788" y="353" type="line"/>
      <point x="788" y="363" type="line"/>
      <point x="662" y="409" type="line"/>
      <point x="662" y="561" type="line"/>
      <point x="652" y="561" type="line"/>
      <point x="652" y="325" type="line" smooth="yes"/>
      <point x="652" y="205"/>
      <point x="620" y="175"/>
      <point x="533" y="175" type="curve" smooth="yes"/>
      <point x="293" y="175" type="line" smooth="yes"/>
      <point x="204" y="175"/>
      <point x="172" y="207"/>
      <point x="172" y="325" type="curve" smooth="yes"/>
      <point x="172" y="561" type="line"/>
      <point x="162" y="561" type="line"/>
      <point x="162" y="325" type="line" smooth="yes"/>
      <point x="162" y="197"/>
      <point x="198" y="165"/>
      <point x="293" y="165" type="curve" smooth="yes"/>
    </contour>
  </outline>
</glyph>
<glyph name="Aogonek" format="1">
  <advance width="945"/>
  <unicode hex="0104"/>
  <outline>
    <contour>
      <point x="652" y="164" type="line"/>
      <point x="652" y="174" type="line"/>
      <point x="500" y="174" type="line"/>
      <point x="500" y="543" type="line"/>
      <point x="645" y="543" type="line"/>
      <point x="660" y="517"/>
      <point x="668" y="513"/>
      <point x="700" y="508" type="curve" smooth="yes"/>
      <point x="783" y="496" type="line" smooth="yes"/>
      <point x="833" y="488"/>
      <point x="858" y="498"/>
      <point x="858" y="547" type="curve" smooth="yes"/>
      <point x="858" y="571" type="line"/>
      <point x="848" y="571" type="line"/>
      <point x="848" y="547" type="line" smooth="yes"/>
      <point x="848" y="506"/>
      <point x="825" y="501"/>
      <point x="785" y="506" type="curve" smooth="yes"/>
      <point x="700" y="518" type="line" smooth="yes"/>
      <point x="671" y="522"/>
      <point x="666" y="526"/>
      <point x="652" y="551" type="curve"/>
      <point x="652" y="553" type="line"/>
      <point x="459" y="553" type="line" smooth="yes"/>
      <point x="422" y="553"/>
      <point x="392" y="548"/>
      <point x="362" y="536" type="curve" smooth="yes"/>
      <point x="219" y="477" type="line" smooth="yes"/>
      <point x="181" y="461"/>
      <point x="152" y="439"/>
      <point x="152" y="395" type="curve" smooth="yes"/>
      <point x="152" y="318" type="line" smooth="yes"/>
      <point x="152" y="272"/>
      <point x="181" y="249"/>
      <point x="218" y="235" type="curve" smooth="yes"/>
      <point x="362" y="181" type="line"/>
      <point x="391" y="170"/>
      <point x="422" y="164"/>
      <point x="459" y="164" type="curve" smooth="yes"/>
    </contour>
    <contour>
      <point x="459" y="174" type="line"/>
      <point x="423" y="174"/>
      <point x="393" y="180"/>
      <point x="366" y="190" type="curve"/>
      <point x="222" y="244" type="line"/>
      <point x="188" y="257"/>
      <point x="162" y="278"/>
      <point x="162" y="318" type="curve" smooth="yes"/>
      <point x="162" y="395" type="line" smooth="yes"/>
      <point x="162" y="432"/>
      <point x="188" y="453"/>
      <point x="223" y="468" type="curve"/>
      <point x="366" y="527" type="line"/>
      <point x="393" y="537"/>
      <point x="423" y="543"/>
      <point x="459" y="543" type="curve"/>
      <point x="490" y="543" type="line"/>
      <point x="490" y="174" type="line"/>
    </contour>
  </outline>
</glyph>
<glyph name="Eogonek" format="1">
  <advance width="963"/>
  <unicode hex="0118"/>
  <outline>
    <contour>
      <point x="670" y="168" type="line"/>
      <point x="670" y="521" type="line"/>
      <point x="682" y="505"/>
      <point x="692" y="501"/>
      <point x="718" y="497" type="curve" smooth="yes"/>
      <point x="801" y="485" type="line" smooth="yes"/>
      <point x="851" y="477"/>
      <point x="876" y="487"/>
      <point x="876" y="536" type="curve" smooth="yes"/>
      <point x="876" y="560" type="line"/>
      <point x="866" y="560" type="line"/>
      <point x="866" y="536" type="line" smooth="yes"/>
      <point x="866" y="495"/>
      <point x="843" y="490"/>
      <point x="803" y="495" type="curve" smooth="yes"/>
      <point x="718" y="507" type="line" smooth="yes"/>
      <point x="689" y="511"/>
      <point x="684" y="515"/>
      <point x="670" y="540" type="curve"/>
      <point x="670" y="561" type="line"/>
      <point x="660" y="561" type="line"/>
      <point x="660" y="178" type="line"/>
      <point x="421" y="178" type="line"/>
      <point x="421" y="480" type="line"/>
      <point x="411" y="480" type="line"/>
      <point x="411" y="178" type="line"/>
      <point x="180" y="178" type="line"/>
      <point x="180" y="561" type="line"/>
      <point x="170" y="561" type="line"/>
      <point x="170" y="168" type="line"/>
    </contour>
  </outline>
</glyph>
<glyph name="Iogonek" format="1">
  <advance width="963"/>
  <unicode hex="012E"/>
  <outline>
    <contour>
      <point x="180" y="355" type="line"/>
      <point x="660" y="355" type="line"/>
      <point x="660" y="159" type="line"/>
      <point x="670" y="159" type="line"/>
      <point x="670" y="522" type="line"/>
      <point x="682" y="506"/>
      <point x="692" y="502"/>
      <point x="718" y="498" type="curve" smooth="yes"/>
      <point x="801" y="486" type="line" smooth="yes"/>
      <point x="851" y="478"/>
      <point x="876" y="488"/>
      <point x="876" y="537" type="curve" smooth="yes"/>
      <point x="876" y="561" type="line"/>
      <point x="866" y="561" type="line"/>
      <point x="866" y="537" type="line" smooth="yes"/>
      <point x="866" y="496"/>
      <point x="843" y="491"/>
      <point x="803" y="496" type="curve" smooth="yes"/>
      <point x="718" y="508" type="line" smooth="yes"/>
      <point x="689" y="512"/>
      <point x="684" y="516"/>
      <point x="670" y="541" type="curve"/>
      <point x="670" y="561" type="line"/>
      <point x="660" y="561" type="line"/>
      <point x="660" y="365" type="line"/>
      <point x="180" y="365" type="line"/>
      <point x="180" y="561" type="line"/>
      <point x="170" y="561" type="line"/>
      <point x="170" y="159" type="line"/>
      <point x="180" y="159" type="line"/>
    </contour>
  </outline>
</glyph>
<glyph name="Ldot" format="1">
  <advance width="1012"/>
  <unicode hex="013F"/>
  <outline>
    <contour>
      <point x="145" y="170" type="line"/>
      <point x="645" y="170" type="line"/>
      <point x="645" y="557" type="line"/>
      <point x="448" y="557" type="line"/>
      <point x="448" y="547" type="line"/>
      <point x="635" y="547" type="line"/>
      <point x="635" y="180" type="line"/>
      <point x="145" y="180" type="line"/>
    </contour>
    <contour>
      <point x="923" y="372" type="line"/>
      <point x="923" y="382" type="line"/>
      <point x="868" y="382" type="line"/>
      <point x="868" y="372" type="line"/>
    </contour>
  </outline>
</glyph>
<glyph name="Lslash" format="1">
  <advance width="855"/>
  <unicode hex="0141"/>
  <outline>
    <contour>
      <point x="400.0" y="94" type="line"/>
      <point x="367.0" y="294" type="line"/>
      <point x="357.0" y="294" type="line"/>
      <point x="390.0" y="94" type="line"/>
    </contour>
    <component base="L"/>
  </outline>
</glyph>
<glyph name="OE" format="1">
  <advance width="880"/>
  <unicode hex="0152"/>
  <outline>
    <contour>
      <point x="574.0" y="136" type="line" smooth="yes"/>
      <point x="651.0" y="136"/>
      <point x="710.0" y="157"/>
      <point x="710.0" y="286" type="curve" smooth="yes"/>
      <point x="710.0" y="591" type="line"/>
      <point x="700.0" y="591" type="line"/>
      <point x="700.0" y="446" type="line"/>
      <point x="440.0" y="446" type="line"/>
      <point x="440.0" y="590" type="line"/>
      <point x="430.0" y="590" type="line"/>
      <point x="430.0" y="446" type="line"/>
      <point x="180.0" y="446" type="line"/>
      <point x="180.0" y="591" type="line"/>
      <point x="170.0" y="591" type="line"/>
      <point x="170.0" y="286" type="line" smooth="yes"/>
      <point x="170.0" y="159"/>
      <point x="232.0" y="136"/>
      <point x="309.0" y="136" type="curve" smooth="yes"/>
    </contour>
    <contour>
      <point x="309.0" y="146" type="line"/>
      <point x="236.0" y="146"/>
      <point x="180.0" y="168"/>
      <point x="180.0" y="286" type="curve" smooth="yes"/>
      <point x="180.0" y="436" type="line"/>
      <point x="700.0" y="436" type="line"/>
      <point x="700.0" y="286" type="line"/>
      <point x="700.0" y="169"/>
      <point x="649.0" y="147"/>
      <point x="579.0" y="146" type="curve"/>
    </contour>
  </outline>
</glyph>
<glyph name="Scedilla" format="1">
  <advance width="905"/>
  <unicode hex="015E"/>
  <outline>
    <contour>
      <point x="662" y="150" type="line"/>
      <point x="662" y="362" type="line"/>
      <point x="788" y="317" type="line"/>
      <point x="788" y="327" type="line"/>
      <point x="662" y="373" type="line"/>
      <point x="662" y="441" type="line" smooth="yes"/>
      <point x="662" y="509"/>
      <point x="627" y="552"/>
      <point x="571" y="552" type="curve" smooth="yes"/>
      <point x="508" y="552" type="line" smooth="yes"/>
      <point x="454" y="552"/>
      <point x="423" y="523"/>
      <point x="417" y="463" type="curve" smooth="yes"/>
      <point x="396" y="250" type="line" smooth="yes"/>
      <point x="392" y="206"/>
      <point x="365" y="179"/>
      <point x="325" y="179" type="curve" smooth="yes"/>
      <point x="253" y="179" type="line" smooth="yes"/>
      <point x="203" y="179"/>
      <point x="172" y="214"/>
      <point x="172" y="271" type="curve" smooth="yes"/>
      <point x="172" y="545" type="line"/>
      <point x="162" y="545" type="line"/>
      <point x="162" y="271" type="line" smooth="yes"/>
      <point x="162" y="208"/>
      <point x="197" y="169"/>
      <point x="253" y="169" type="curve" smooth="yes"/>
      <point x="325" y="169" type="line" smooth="yes"/>
      <point x="370" y="169"/>
      <point x="401" y="199"/>
      <point x="406" y="248" type="curve" smooth="yes"/>
      <point x="427" y="461" type="line" smooth="yes"/>
      <point x="432" y="516"/>
      <point x="460" y="542"/>
      <point x="508" y="542" type="curve" smooth="yes"/>
      <point x="571" y="542" type="line" smooth="yes"/>
      <point x="621" y="542"/>
      <point x="652" y="503"/>
      <point x="652" y="441" type="curve" smooth="yes"/>
      <point x="652" y="150" type="line"/>
    </contour>
  </outline>
</glyph>
<glyph name="Tcommaaccent" format="1">
  <advance width="1002"/>
  <unicode hex="0162"/>
  <outline>
    <contour>
      <point x="590" y="355" type="line"/>
      <point x="590" y="365" type="line"/>
      <point x="180" y="365" type="line"/>
      <point x="180" y="570" type="line"/>
      <point x="170" y="570" type="line"/>
      <point x="170" y="150" type="line"/>
      <point x="180" y="150" type="line"/>
      <point x="180" y="355" type="line"/>
    </contour>
    <contour>
      <point x="784" y="294" type="line"/>
      <point x="794" y="294" type="line"/>
      <point x="794" y="416" type="line"/>
      <point x="871" y="416" type="line" smooth="yes"/>
      <point x="918" y="416"/>
      <point x="942" y="390"/>
      <point x="942" y="348" type="curve" smooth="yes"/>
      <point x="942" y="294" type="line"/>
      <point x="952" y="294" type="line"/>
      <point x="952" y="348" type="line" smooth="yes"/>
      <point x="952" y="396"/>
      <point x="925" y="426"/>
      <point x="871" y="426" type="curve" smooth="yes"/>
      <point x="784" y="426" type="line"/>
    </contour>
  </outline>
</glyph>
<glyph name="Tbar" format="1">
  <advance width="855"/>
  <unicode hex="0166"/>
  <outline>
    <contour>
      <point x="182.0" y="150" type="line"/>
      <point x="182.0" y="355" type="line"/>
      <point x="486.0" y="355" type="line"/>
      <point x="486.0" y="220" type="line"/>
      <point x="496.0" y="220" type="line"/>
      <point x="496.0" y="355" type="line"/>
      <point x="712.0" y="355" type="line"/>
      <point x="712.0" y="365" type="line"/>
      <point x="496.0" y="365" type="line"/>
      <point x="496.0" y="499" type="line"/>
      <point x="486.0" y="499" type="line"/>
      <point x="486.0" y="365" type="line"/>
      <point x="182.0" y="365" type="line"/>
      <point x="182.0" y="570" type="line"/>
      <point x="172.0" y="570" type="line"/>
      <point x="172.0" y="150" type="line"/>
    </contour>
  </outline>
</glyph>
<glyph name="Uogonek" format="1">
  <advance width="961"/>
  <unicode hex="0172"/>
  <outline>
    <contour>
      <point x="669" y="357" type="curve" smooth="yes"/>
      <point x="669" y="362"/>
      <point x="669" y="366"/>
      <point x="669" y="370" type="curve"/>
      <point x="680" y="354"/>
      <point x="690" y="351"/>
      <point x="716" y="347" type="curve" smooth="yes"/>
      <point x="799" y="335" type="line" smooth="yes"/>
      <point x="849" y="327"/>
      <point x="874" y="337"/>
      <point x="874" y="386" type="curve" smooth="yes"/>
      <point x="874" y="410" type="line"/>
      <point x="864" y="410" type="line"/>
      <point x="864" y="386" type="line" smooth="yes"/>
      <point x="864" y="345"/>
      <point x="841" y="340"/>
      <point x="801" y="345" type="curve" smooth="yes"/>
      <point x="716" y="357" type="line" smooth="yes"/>
      <point x="687" y="361"/>
      <point x="682" y="365"/>
      <point x="668" y="390" type="curve"/>
      <point x="661" y="516"/>
      <point x="609" y="553"/>
      <point x="534" y="553" type="curve" smooth="yes"/>
      <point x="157" y="553" type="line"/>
      <point x="157" y="543" type="line"/>
      <point x="534" y="543" type="line" smooth="yes"/>
      <point x="609" y="543"/>
      <point x="659" y="502"/>
      <point x="659" y="357" type="curve" smooth="yes"/>
      <point x="659" y="218"/>
      <point x="609" y="180"/>
      <point x="534" y="180" type="curve" smooth="yes"/>
      <point x="157" y="180" type="line"/>
      <point x="157" y="170" type="line"/>
      <point x="534" y="170" type="line" smooth="yes"/>
      <point x="615" y="170"/>
      <point x="669" y="210"/>
    </contour>
  </outline>
</glyph>
<glyph name="breve" format="1">
  <advance width="267"/>
  <unicode hex="02D8"/>
  <outline>
    <contour>
      <point x="97.0" y="494" type="line"/>
      <point x="106.0" y="494" type="line" smooth="yes"/>
      <point x="142.0" y="494"/>
      <point x="176.0" y="467"/>
      <point x="176.0" y="359" type="curve" smooth="yes"/>
      <point x="176.0" y="251"/>
      <point x="142.0" y="229"/>
      <point x="106.0" y="229" type="curve" smooth="yes"/>
      <point x="97.0" y="229" type="line"/>
      <point x="97.0" y="219" type="line"/>
      <point x="106.0" y="219" type="line" smooth="yes"/>
      <point x="144.0" y="219"/>
      <point x="186.0" y="235"/>
      <point x="186.0" y="359" type="curve" smooth="yes"/>
      <point x="186.0" y="483"/>
      <point x="144.0" y="504"/>
      <point x="106.0" y="504" type="curve" smooth="yes"/>
      <point x="97.0" y="504" type="line"/>
    </contour>
    <contour>
      <point x="257.0" y="360.0" type="move" name="_top"/>
    </contour>
    <contour>
      <point x="1004.0" y="360.0" type="move" name="_bottom"/>
    </contour>
  </outline>
</glyph>
<glyph name="dotaccent" format="1">
  <advance width="233"/>
  <unicode hex="02D9"/>
  <outline>
    <contour>
      <point x="146.0" y="366" type="line"/>
      <point x="87.0" y="366" type="line"/>
      <point x="87.0" y="356" type="line"/>
      <point x="146.0" y="356" type="line"/>
    </contour>
    <contour>
      <point x="229.0" y="360.0" type="move" name="_top"/>
    </contour>
    <contour>
      <point x="976.0" y="360.0" type="move" name="_bottom"/>
    </contour>
  </outline>
</glyph>
<glyph name="ogonek" format="1">
  <advance width="287"/>
  <unicode hex="02DB"/>
  <outline>
    <contour>
      <point x="200.0" y="398" type="line"/>
      <point x="190.0" y="398" type="line"/>
      <point x="190.0" y="374" type="line" smooth="yes"/>
      <point x="190.0" y="333"/>
      <point x="167.0" y="328"/>
      <point x="127.0" y="333" type="curve" smooth="yes"/>
      <point x="42.0" y="345" type="line" smooth="yes"/>
      <point x="13.0" y="349"/>
      <point x="8.0" y="353"/>
      <point x="-6.0" y="378" type="curve"/>
      <point x="-14.0" y="372" type="line"/>
      <point x="2.0" y="344"/>
      <point x="10.0" y="340"/>
      <point x="42.0" y="335" type="curve" smooth="yes"/>
      <point x="125.0" y="323" type="line" smooth="yes"/>
      <point x="175.0" y="315"/>
      <point x="200.0" y="325"/>
      <point x="200.0" y="374" type="curve" smooth="yes"/>
    </contour>
    <contour>
      <point x="-663.0" y="360.0" type="move" name="_top"/>
    </contour>
    <contour>
      <point x="84.0" y="360.0" type="move" name="_bottom"/>
    </contour>
  </outline>
</glyph>
<glyph name="hungarumlaut" format="1">
  <advance width="351"/>
  <unicode hex="02DD"/>
  <outline>
    <contour>
      <point x="224.0" y="472" type="line"/>
      <point x="127.0" y="497" type="line"/>
      <point x="127.0" y="486" type="line"/>
      <point x="224.0" y="461" type="line"/>
    </contour>
    <contour>
      <point x="224.0" y="212" type="line"/>
      <point x="127.0" y="237" type="line"/>
      <point x="127.0" y="226" type="line"/>
      <point x="224.0" y="201" type="line"/>
    </contour>
  </outline>
</glyph>
<glyph name="commaaccent" format="1">
  <advance width="309"/>
  <unicode hex="0326"/>
  <outline>
    <contour>
      <point x="91.0" y="295" type="line"/>
      <point x="101.0" y="295" type="line"/>
      <point x="101.0" y="417" type="line"/>
      <point x="178.0" y="417" type="line" smooth="yes"/>
      <point x="225.0" y="417"/>
      <point x="249.0" y="391"/>
      <point x="249.0" y="349" type="curve" smooth="yes"/>
      <point x="249.0" y="295" type="line"/>
      <point x="259.0" y="295" type="line"/>
      <point x="259.0" y="349" type="line" smooth="yes"/>
      <point x="259.0" y="397"/>
      <point x="232.0" y="427"/>
      <point x="178.0" y="427" type="curve" smooth="yes"/>
      <point x="91.0" y="427" type="line"/>
    </contour>
  </outline>
</glyph>
<glyph name="emdash" format="1">
  <advance width="1134"/>
  <unicode hex="2014"/>
  <outline>
    <contour>
      <point x="974.0" y="366" type="line"/>
      <point x="160.0" y="366" type="line"/>
      <point x="160.0" y="356" type="line"/>
      <point x="974.0" y="356" type="line"/>
    </contour>
  </outline>
</glyph>
<glyph name="bullet" format="1">
  <advance width="514"/>
  <unicode hex="2022"/>
  <outline>
    <contour>
      <point x="170.0" y="446" type="line"/>
      <point x="170.0" y="273" type="line"/>
      <point x="344.0" y="273" type="line"/>
      <point x="344.0" y="446" type="line"/>
    </contour>
    <contour>
      <point x="180.0" y="436" type="line"/>
      <point x="334.0" y="436" type="line"/>
      <point x="334.0" y="283" type="line"/>
      <point x="180.0" y="283" type="line"/>
    </contour>
  </outline>
</glyph>
<glyph name="ellipsis" format="1">
  <advance width="435"/>
  <unicode hex="2026"/>
  <outline>
    <contour>
      <point x="265.0" y="717" type="line"/>
      <point x="265.0" y="727" type="line"/>
      <point x="170.0" y="727" type="line"/>
      <point x="170.0" y="717" type="line"/>
    </contour>
    <contour>
      <point x="265.0" y="354" type="line"/>
      <point x="265.0" y="364" type="line"/>
      <point x="170.0" y="364" type="line"/>
      <point x="170.0" y="354" type="line"/>
    </contour>
    <contour>
      <point x="265.0" y="-9" type="line"/>
      <point x="265.0" y="1" type="line"/>
      <point x="170.0" y="1" type="line"/>
      <point x="170.0" y="-9" type="line"/>
    </contour>
  </outline>
</glyph>
<glyph name="uni2117" format="1">
  <advance width="1025"/>
  <unicode hex="2117"/>
  <outline>
    <contour>
      <point x="305.0" y="688" type="line" smooth="yes"/>
      <point x="201.0" y="688"/>
      <point x="105.0" y="659"/>
      <point x="105.0" y="360" type="curve" smooth="yes"/>
      <point x="105.0" y="61"/>
      <point x="201.0" y="31"/>
      <point x="305.0" y="31" type="curve" smooth="yes"/>
      <point x="723.0" y="31" type="line" smooth="yes"/>
      <point x="836.0" y="31"/>
      <point x="921.0" y="79"/>
      <point x="921.0" y="360" type="curve" smooth="yes"/>
      <point x="921.0" y="641"/>
      <point x="826.0" y="688"/>
      <point x="723.0" y="688" type="curve" smooth="yes"/>
    </contour>
    <contour>
      <point x="911.0" y="360" type="curve" smooth="yes"/>
      <point x="911.0" y="95"/>
      <point x="832.0" y="41"/>
      <point x="723.0" y="41" type="curve" smooth="yes"/>
      <point x="305.0" y="41" type="line" smooth="yes"/>
      <point x="205.0" y="41"/>
      <point x="115.0" y="75"/>
      <point x="115.0" y="360" type="curve" smooth="yes"/>
      <point x="115.0" y="645"/>
      <point x="205.0" y="678"/>
      <point x="305.0" y="678" type="curve" smooth="yes"/>
      <point x="723.0" y="678" type="line" smooth="yes"/>
      <point x="822.0" y="678"/>
      <point x="911.0" y="625"/>
    </contour>
    <contour>
      <point x="309.0" y="238" type="line"/>
      <point x="700.0" y="238" type="line"/>
      <point x="700.0" y="248" type="line"/>
      <point x="559.0" y="248" type="line"/>
      <point x="559.0" y="395" type="line" smooth="yes"/>
      <point x="559.0" y="487"/>
      <point x="519.0" y="504"/>
      <point x="462.0" y="504" type="curve" smooth="yes"/>
      <point x="409.0" y="504" type="line" smooth="yes"/>
      <point x="352.0" y="504"/>
      <point x="309.0" y="487"/>
      <point x="309.0" y="395" type="curve" smooth="yes"/>
    </contour>
    <contour>
      <point x="319.0" y="395" type="line" smooth="yes"/>
      <point x="319.0" y="483"/>
      <point x="358.0" y="494"/>
      <point x="409.0" y="494" type="curve" smooth="yes"/>
      <point x="462.0" y="494" type="line" smooth="yes"/>
      <point x="512.0" y="494"/>
      <point x="549.0" y="483"/>
      <point x="549.0" y="395" type="curve" smooth="yes"/>
      <point x="549.0" y="248" type="line"/>
      <point x="319.0" y="248" type="line"/>
    </contour>
  </outline>
</glyph>
<glyph name="Omega" format="1">
  <advance width="882"/>
  <unicode hex="2126"/>
  <unicode hex="03A9"/>
  <outline>
    <contour>
      <point x="539.0" y="552" type="line" smooth="yes"/>
      <point x="610.0" y="552"/>
      <point x="643.0" y="544"/>
      <point x="664.0" y="476" type="curve" smooth="yes"/>
      <point x="665.0" y="472" type="line"/>
      <point x="712.0" y="472" type="line"/>
      <point x="712.0" y="623" type="line"/>
      <point x="702.0" y="623" type="line"/>
      <point x="702.0" y="482" type="line"/>
      <point x="673.0" y="482" type="line"/>
      <point x="651.0" y="552"/>
      <point x="616.0" y="562"/>
      <point x="539.0" y="562" type="curve" smooth="yes"/>
      <point x="295.0" y="562" type="line" smooth="yes"/>
      <point x="214.0" y="562"/>
      <point x="160.0" y="517"/>
      <point x="160.0" y="360" type="curve" smooth="yes"/>
      <point x="160.0" y="203"/>
      <point x="214.0" y="158"/>
      <point x="295.0" y="158" type="curve" smooth="yes"/>
      <point x="539.0" y="158" type="line" smooth="yes"/>
      <point x="615.0" y="158"/>
      <point x="650.0" y="168"/>
      <point x="673.0" y="238" type="curve"/>
      <point x="702.0" y="238" type="line"/>
      <point x="702.0" y="97" type="line"/>
      <point x="712.0" y="97" type="line"/>
      <point x="712.0" y="248" type="line"/>
      <point x="665.0" y="248" type="line"/>
      <point x="664.0" y="244" type="line" smooth="yes"/>
      <point x="643.0" y="176"/>
      <point x="610.0" y="168"/>
      <point x="539.0" y="168" type="curve" smooth="yes"/>
      <point x="295.0" y="168" type="line" smooth="yes"/>
      <point x="220.0" y="168"/>
      <point x="170.0" y="211"/>
      <point x="170.0" y="360" type="curve" smooth="yes"/>
      <point x="170.0" y="509"/>
      <point x="220.0" y="552"/>
      <point x="295.0" y="552" type="curve" smooth="yes"/>
    </contour>
  </outline>
</glyph>
<glyph name="arrowup" format="1">
  <advance width="1000"/>
  <unicode hex="2191"/>
  <outline>
    <contour>
      <point x="515.0" y="223" type="line"/>
      <point x="515.0" y="355" type="line"/>
      <point x="731.0" y="355" type="line"/>
      <point x="731.0" y="365" type="line"/>
      <point x="515.0" y="365" type="line"/>
      <point x="515.0" y="498" type="line"/>
      <point x="311.0" y="360" type="line"/>
    </contour>
    <contour>
      <point x="505.0" y="241" type="line"/>
      <point x="329.0" y="360" type="line"/>
      <point x="505.0" y="480" type="line"/>
    </contour>
  </outline>
</glyph>
<glyph name="arrowright" format="1">
  <advance width="1001"/>
  <unicode hex="2192"/>
  <outline>
    <contour>
      <point x="497.0" y="135" type="line"/>
      <point x="507.0" y="135" type="line"/>
      <point x="507.0" y="351" type="line"/>
      <point x="640.0" y="351" type="line"/>
      <point x="502.0" y="555" type="line"/>
      <point x="365.0" y="351" type="line"/>
      <point x="497.0" y="351" type="line"/>
    </contour>
    <contour>
      <point x="621.0" y="361" type="line"/>
      <point x="383.0" y="361" type="line"/>
      <point x="502.0" y="537" type="line"/>
    </contour>
  </outline>
</glyph>
<glyph name="arrowupright" format="1">
  <advance width="1000"/>
  <unicode hex="2197"/>
  <outline>
    <contour>
      <point x="637.0" y="217" type="line"/>
      <point x="644.0" y="224" type="line"/>
      <point x="491.0" y="377" type="line"/>
      <point x="585.0" y="471" type="line"/>
      <point x="343.0" y="518" type="line"/>
      <point x="391.0" y="277" type="line"/>
      <point x="484.0" y="370" type="line"/>
    </contour>
    <contour>
      <point x="397.0" y="297" type="line"/>
      <point x="356.0" y="505" type="line"/>
      <point x="565.0" y="465" type="line"/>
    </contour>
  </outline>
</glyph>
<glyph name="uni21B3" format="1">
  <advance width="1020"/>
  <unicode hex="21B3"/>
  <outline>
    <contour>
      <point x="258.0" y="107" type="line"/>
      <point x="475.0" y="107" type="line" smooth="yes"/>
      <point x="553.0" y="107"/>
      <point x="599.0" y="160"/>
      <point x="599.0" y="242" type="curve" smooth="yes"/>
      <point x="599.0" y="411" type="line"/>
      <point x="684.0" y="411" type="line"/>
      <point x="593.0" y="547" type="line"/>
      <point x="502.0" y="411" type="line"/>
      <point x="589.0" y="411" type="line"/>
      <point x="589.0" y="242" type="line" smooth="yes"/>
      <point x="589.0" y="166"/>
      <point x="547.0" y="117"/>
      <point x="475.0" y="117" type="curve" smooth="yes"/>
      <point x="258.0" y="117" type="line"/>
    </contour>
    <contour>
      <point x="666.0" y="421" type="line"/>
      <point x="520.0" y="421" type="line"/>
      <point x="593.0" y="529" type="line"/>
    </contour>
  </outline>
</glyph>
<glyph name="Delta" format="1">
  <advance width="880"/>
  <unicode hex="2206"/>
  <outline>
    <contour>
      <point x="607.0" y="157" type="curve" smooth="yes"/>
      <point x="710.0" y="157" type="line"/>
      <point x="710.0" y="559" type="line"/>
      <point x="607.0" y="559" type="line" smooth="yes"/>
      <point x="569.0" y="559"/>
      <point x="536.0" y="554"/>
      <point x="515.0" y="549" type="curve" smooth="yes"/>
      <point x="265.0" y="486" type="line" smooth="yes"/>
      <point x="176.0" y="464"/>
      <point x="175.0" y="444"/>
      <point x="175.0" y="382" type="curve" smooth="yes"/>
      <point x="175.0" y="331" type="line" smooth="yes"/>
      <point x="175.0" y="269"/>
      <point x="176.0" y="248"/>
      <point x="265.0" y="227" type="curve" smooth="yes"/>
      <point x="512.0" y="168" type="line" smooth="yes"/>
      <point x="536.0" y="162"/>
      <point x="569.0" y="157"/>
    </contour>
    <contour>
      <point x="607.0" y="167" type="line" smooth="yes"/>
      <point x="569.0" y="167"/>
      <point x="538.0" y="172"/>
      <point x="514.0" y="178" type="curve" smooth="yes"/>
      <point x="267.0" y="237" type="line" smooth="yes"/>
      <point x="186.0" y="256"/>
      <point x="185.0" y="275"/>
      <point x="185.0" y="331" type="curve" smooth="yes"/>
      <point x="185.0" y="382" type="line" smooth="yes"/>
      <point x="185.0" y="438"/>
      <point x="186.0" y="456"/>
      <point x="267.0" y="476" type="curve" smooth="yes"/>
      <point x="517.0" y="539" type="line" smooth="yes"/>
      <point x="538.0" y="544"/>
      <point x="569.0" y="549"/>
      <point x="607.0" y="549" type="curve" smooth="yes"/>
      <point x="700.0" y="549" type="line"/>
      <point x="700.0" y="167" type="line"/>
    </contour>
  </outline>
</glyph>
<glyph name="product" format="1">
  <advance width="867"/>
  <unicode hex="220F"/>
  <outline>
    <contour>
      <point x="170.0" y="157" type="line"/>
      <point x="710.0" y="157" type="line"/>
      <point x="710.0" y="167" type="line"/>
      <point x="180.0" y="167" type="line"/>
      <point x="180.0" y="551" type="line"/>
      <point x="710.0" y="551" type="line"/>
      <point x="710.0" y="561" type="line"/>
      <point x="170.0" y="561" type="line"/>
    </contour>
  </outline>
</glyph>
<glyph name="integral" format="1">
  <advance width="1004"/>
  <unicode hex="222B"/>
  <outline>
    <contour>
      <point x="144.0" y="482" type="line"/>
      <point x="144.0" y="405"/>
      <point x="173.0" y="355"/>
      <point x="265.0" y="355" type="curve" smooth="yes"/>
      <point x="726.0" y="355" type="line" smooth="yes"/>
      <point x="830.0" y="355"/>
      <point x="850.0" y="329"/>
      <point x="850.0" y="228" type="curve"/>
      <point x="860.0" y="228" type="line"/>
      <point x="860.0" y="336"/>
      <point x="838.0" y="365"/>
      <point x="726.0" y="365" type="curve" smooth="yes"/>
      <point x="265.0" y="365" type="line" smooth="yes"/>
      <point x="179.0" y="365"/>
      <point x="154.0" y="413"/>
      <point x="154.0" y="482" type="curve"/>
    </contour>
  </outline>
</glyph>
<glyph name="notequal" format="1">
  <advance width="784"/>
  <unicode hex="2260"/>
  <outline>
    <contour>
      <point x="247.0" y="153" type="line"/>
      <point x="247.0" y="381" type="line"/>
      <point x="537.0" y="331" type="line"/>
      <point x="537.0" y="153" type="line"/>
      <point x="547.0" y="153" type="line"/>
      <point x="547.0" y="330" type="line"/>
      <point x="632.0" y="315" type="line"/>
      <point x="632.0" y="325" type="line"/>
      <point x="547.0" y="340" type="line"/>
      <point x="547.0" y="567" type="line"/>
      <point x="537.0" y="567" type="line"/>
      <point x="537.0" y="341" type="line"/>
      <point x="247.0" y="391" type="line"/>
      <point x="247.0" y="567" type="line"/>
      <point x="237.0" y="567" type="line"/>
      <point x="237.0" y="393" type="line"/>
      <point x="142.0" y="409" type="line"/>
      <point x="142.0" y="399" type="line"/>
      <point x="237.0" y="383" type="line"/>
      <point x="237.0" y="153" type="line"/>
    </contour>
  </outline>
</glyph>
<glyph name="lessequal" format="1">
  <advance width="872"/>
  <unicode hex="2264"/>
  <outline>
    <contour>
      <point x="546" y="537" type="line"/>
      <point x="460" y="239" type="line" smooth="yes"/>
      <point x="452" y="211"/>
      <point x="437" y="189"/>
      <point x="399" y="189" type="curve" smooth="yes"/>
      <point x="327" y="189" type="line" smooth="yes"/>
      <point x="289" y="189"/>
      <point x="277" y="211"/>
      <point x="269" y="239" type="curve" smooth="yes"/>
      <point x="183" y="537" type="line"/>
      <point x="173" y="537" type="line"/>
      <point x="259" y="237" type="line" smooth="yes"/>
      <point x="269" y="203"/>
      <point x="283" y="179"/>
      <point x="327" y="179" type="curve" smooth="yes"/>
      <point x="399" y="179" type="line" smooth="yes"/>
      <point x="443" y="179"/>
      <point x="460" y="203"/>
      <point x="470" y="237" type="curve" smooth="yes"/>
      <point x="556" y="537" type="line"/>
    </contour>
    <contour>
      <point x="702" y="179" type="line"/>
      <point x="702" y="537" type="line"/>
      <point x="692" y="537" type="line"/>
      <point x="692" y="179" type="line"/>
    </contour>
  </outline>
</glyph>
<glyph name="greaterequal" format="1">
  <advance width="872"/>
  <unicode hex="2265"/>
  <outline>
    <contour>
      <point x="702" y="183" type="line"/>
      <point x="702" y="541" type="line"/>
      <point x="692" y="541" type="line"/>
      <point x="692" y="183" type="line"/>
    </contour>
    <contour>
      <point x="470" y="483" type="line" smooth="yes"/>
      <point x="460" y="517"/>
      <point x="443" y="541"/>
      <point x="399" y="541" type="curve" smooth="yes"/>
      <point x="327" y="541" type="line" smooth="yes"/>
      <point x="283" y="541"/>
      <point x="269" y="517"/>
      <point x="259" y="483" type="curve" smooth="yes"/>
      <point x="173" y="183" type="line"/>
      <point x="183" y="183" type="line"/>
      <point x="269" y="481" type="line" smooth="yes"/>
      <point x="277" y="509"/>
      <point x="289" y="531"/>
      <point x="327" y="531" type="curve" smooth="yes"/>
      <point x="399" y="531" type="line" smooth="yes"/>
      <point x="437" y="531"/>
      <point x="452" y="509"/>
      <point x="460" y="481" type="curve" smooth="yes"/>
      <point x="546" y="183" type="line"/>
      <point x="556" y="183" type="line"/>
    </contour>
  </outline>
</glyph>
<glyph name="uni25D7" format="1">
  <advance width="1000"/>
  <unicode hex="25D7"/>
  <outline>
    <contour>
      <point x="207.0" y="871" type="line"/>
      <point x="253.0" y="871" type="line" smooth="yes"/>
      <point x="552.0" y="871"/>
      <point x="763.0" y="660"/>
      <point x="763.0" y="361" type="curve" smooth="yes"/>
      <point x="763.0" y="62"/>
      <point x="552.0" y="-149"/>
      <point x="253.0" y="-149" type="curve" smooth="yes"/>
      <point x="207.0" y="-149" type="line"/>
      <point x="207.0" y="-159" type="line"/>
      <point x="253.0" y="-159" type="line" smooth="yes"/>
      <point x="558.0" y="-159"/>
      <point x="773.0" y="56"/>
      <point x="773.0" y="361" type="curve" smooth="yes"/>
      <point x="773.0" y="666"/>
      <point x="558.0" y="881"/>
      <point x="253.0" y="881" type="curve" smooth="yes"/>
      <point x="207.0" y="881" type="line"/>
    </contour>
  </outline>
</glyph>
<glyph name="uni25DD" format="1">
  <advance width="1280"/>
  <unicode hex="25DD"/>
  <outline>
    <contour>
      <point x="1160.0" y="880.0" type="line"/>
      <point x="1011.0" y="880.0" type="line" smooth="yes"/>
      <point x="415.0" y="880.0"/>
      <point x="120.0" y="585.0"/>
      <point x="120.0" y="-11.0" type="curve" smooth="yes"/>
      <point x="120.0" y="-160.0" type="line"/>
      <point x="1160.0" y="-160.0" type="line"/>
    </contour>
    <contour>
      <point x="1150.0" y="870.0" type="line"/>
      <point x="1150.0" y="-150.0" type="line"/>
      <point x="130.0" y="-150.0" type="line"/>
      <point x="130.0" y="-11.0" type="line" smooth="yes"/>
      <point x="130.0" y="579.0"/>
      <point x="421.0" y="870.0"/>
      <point x="1011.0" y="870.0" type="curve"/>
    </contour>
  </outline>
</glyph>
<glyph name="uni25DE" format="1">
  <advance width="1280"/>
  <unicode hex="25DE"/>
  <outline>
    <contour>
      <point x="1160.0" y="-160.0" type="line"/>
      <point x="1160.0" y="-11.0" type="line" smooth="yes"/>
      <point x="1160.0" y="585.0"/>
      <point x="865.0" y="880.0"/>
      <point x="269.0" y="880.0" type="curve" smooth="yes"/>
      <point x="120.0" y="880.0" type="line"/>
      <point x="120.0" y="-160.0" type="line"/>
    </contour>
    <contour>
      <point x="1150.0" y="-11.0" type="curve" smooth="yes"/>
      <point x="1150.0" y="-150.0" type="line"/>
      <point x="130.0" y="-150.0" type="line"/>
      <point x="130.0" y="870.0" type="line"/>
      <point x="269.0" y="870.0" type="line"/>
      <point x="859.0" y="870.0"/>
      <point x="1150.0" y="579.0"/>
    </contour>
  </outline>
</glyph>
<glyph name="uni25DF" format="1">
  <advance width="1000.0"/>
  <unicode hex="25DF"/>
  <outline>
    <contour>
      <point x="-20.0" y="-160" type="line"/>
      <point x="129.0" y="-160" type="line" smooth="yes"/>
      <point x="725.0" y="-160"/>
      <point x="1020.0" y="135"/>
      <point x="1020.0" y="731" type="curve" smooth="yes"/>
      <point x="1020.0" y="880" type="line"/>
      <point x="-20.0" y="880" type="line"/>
    </contour>
    <contour>
      <point x="129.0" y="-150" type="curve"/>
      <point x="-10.0" y="-150" type="line"/>
      <point x="-10.0" y="870" type="line"/>
      <point x="1010.0" y="870" type="line"/>
      <point x="1010.0" y="731" type="line" smooth="yes"/>
      <point x="1010.0" y="141"/>
      <point x="719.0" y="-150"/>
    </contour>
  </outline>
</glyph>
<glyph name="uni27A1" format="1">
  <advance width="998"/>
  <unicode hex="27A1"/>
  <outline>
    <contour>
      <point x="-10.0" y="-5" type="line"/>
      <point x="-10.0" y="72" type="line"/>
      <point x="-181.0" y="72" type="line" smooth="yes"/>
      <point x="-202.0" y="72"/>
      <point x="-214.0" y="90"/>
      <point x="-214.0" y="109" type="curve" smooth="yes"/>
      <point x="-214.0" y="132"/>
      <point x="-200.0" y="157"/>
      <point x="-173.0" y="178" type="curve" smooth="yes"/>
      <point x="407.0" y="614" type="line" smooth="yes"/>
      <point x="435.0" y="636"/>
      <point x="467.0" y="646"/>
      <point x="499.0" y="646" type="curve" smooth="yes"/>
      <point x="531.0" y="646"/>
      <point x="563.0" y="636"/>
      <point x="591.0" y="614" type="curve" smooth="yes"/>
      <point x="1171.0" y="178" type="line" smooth="yes"/>
      <point x="1198.0" y="158"/>
      <point x="1212.0" y="132"/>
      <point x="1212.0" y="109" type="curve" smooth="yes"/>
      <point x="1212.0" y="90"/>
      <point x="1200.0" y="72"/>
      <point x="1179.0" y="72" type="curve" smooth="yes"/>
      <point x="1010.0" y="72" type="line"/>
      <point x="1010.0" y="-5" type="line"/>
      <point x="1020.0" y="-5" type="line"/>
      <point x="1020.0" y="62" type="line"/>
      <point x="1179.0" y="62" type="line" smooth="yes"/>
      <point x="1206.0" y="62"/>
      <point x="1222.0" y="84"/>
      <point x="1222.0" y="109" type="curve" smooth="yes"/>
      <point x="1222.0" y="134"/>
      <point x="1208.0" y="164"/>
      <point x="1177.0" y="186" type="curve" smooth="yes"/>
      <point x="597.0" y="622" type="line" smooth="yes"/>
      <point x="567.0" y="646"/>
      <point x="533.0" y="656"/>
      <point x="499.0" y="656" type="curve" smooth="yes"/>
      <point x="465.0" y="656"/>
      <point x="431.0" y="646"/>
      <point x="401.0" y="622" type="curve" smooth="yes"/>
      <point x="-179.0" y="186" type="line" smooth="yes"/>
      <point x="-210.0" y="163"/>
      <point x="-224.0" y="134"/>
      <point x="-224.0" y="109" type="curve" smooth="yes"/>
      <point x="-224.0" y="84"/>
      <point x="-208.0" y="62"/>
      <point x="-181.0" y="62" type="curve" smooth="yes"/>
      <point x="-20.0" y="62" type="line"/>
      <point x="-20.0" y="-5" type="line"/>
    </contour>
  </outline>
</glyph>
<glyph name="uni2B24" format="1">
  <advance width="1020"/>
  <unicode hex="2B24"/>
  <outline>
    <contour>
      <point x="510.0" y="-190" type="curve" smooth="yes"/>
      <point x="833.0" y="-190"/>
      <point x="1060.0" y="37"/>
      <point x="1060.0" y="360" type="curve" smooth="yes"/>
      <point x="1060.0" y="683"/>
      <point x="833.0" y="910"/>
      <point x="510.0" y="910" type="curve" smooth="yes"/>
      <point x="187.0" y="910"/>
      <point x="-40.0" y="683"/>
      <point x="-40.0" y="360" type="curve" smooth="yes"/>
      <point x="-40.0" y="37"/>
      <point x="187.0" y="-190"/>
    </contour>
    <contour>
      <point x="510.0" y="900" type="curve" smooth="yes"/>
      <point x="827.0" y="900"/>
      <point x="1050.0" y="677"/>
      <point x="1050.0" y="360" type="curve" smooth="yes"/>
      <point x="1050.0" y="43"/>
      <point x="827.0" y="-180"/>
      <point x="510.0" y="-180" type="curve" smooth="yes"/>
      <point x="193.0" y="-180"/>
      <point x="-30.0" y="43"/>
      <point x="-30.0" y="360" type="curve" smooth="yes"/>
      <point x="-30.0" y="677"/>
      <point x="193.0" y="900"/>
    </contour>
  </outline>
</glyph>
<glyph name="Aring.salt" format="1">
  <advance width="1012"/>
  <unicode hex="E106"/>
  <outline>
    <contour>
      <point x="855.0" y="165" type="line"/>
      <point x="855.0" y="175" type="line"/>
      <point x="694.0" y="175" type="line"/>
      <point x="694.0" y="543" type="line"/>
      <point x="855.0" y="543" type="line"/>
      <point x="855.0" y="553" type="line"/>
      <point x="478.0" y="553" type="line" smooth="yes"/>
      <point x="397.0" y="553"/>
      <point x="343.0" y="514"/>
      <point x="343.0" y="359" type="curve" smooth="yes"/>
      <point x="343.0" y="202"/>
      <point x="397.0" y="165"/>
      <point x="478.0" y="165" type="curve" smooth="yes"/>
    </contour>
    <contour>
      <point x="478.0" y="175" type="line" smooth="yes"/>
      <point x="403.0" y="175"/>
      <point x="353.0" y="210"/>
      <point x="353.0" y="359" type="curve" smooth="yes"/>
      <point x="353.0" y="506"/>
      <point x="403.0" y="543"/>
      <point x="478.0" y="543" type="curve" smooth="yes"/>
      <point x="684.0" y="543" type="line"/>
      <point x="684.0" y="175" type="line"/>
    </contour>
    <contour>
      <point x="215.0" y="216" type="line" smooth="yes"/>
      <point x="275.0" y="216"/>
      <point x="315.0" y="238"/>
      <point x="315.0" y="357" type="curve" smooth="yes"/>
      <point x="315.0" y="476"/>
      <point x="275.0" y="500"/>
      <point x="215.0" y="500" type="curve" smooth="yes"/>
      <point x="175.0" y="500" type="line" smooth="yes"/>
      <point x="116.0" y="500"/>
      <point x="74.0" y="476"/>
      <point x="74.0" y="357" type="curve" smooth="yes"/>
      <point x="74.0" y="238"/>
      <point x="115.0" y="216"/>
      <point x="175.0" y="216" type="curve" smooth="yes"/>
    </contour>
    <contour>
      <point x="84.0" y="357" type="curve" smooth="yes"/>
      <point x="84.0" y="464"/>
      <point x="120.0" y="490"/>
      <point x="175.0" y="490" type="curve" smooth="yes"/>
      <point x="215.0" y="490" type="line" smooth="yes"/>
      <point x="271.0" y="490"/>
      <point x="305.0" y="464"/>
      <point x="305.0" y="357" type="curve" smooth="yes"/>
      <point x="305.0" y="250"/>
      <point x="271.0" y="226"/>
      <point x="215.0" y="226" type="curve" smooth="yes"/>
      <point x="175.0" y="226" type="line" smooth="yes"/>
      <point x="119.0" y="226"/>
      <point x="84.0" y="250"/>
    </contour>
  </outline>
</glyph>
<glyph name="Aogonek.salt" format="1">
  <advance width="955"/>
  <unicode hex="E109"/>
  <outline>
    <contour>
      <point x="662" y="165" type="line"/>
      <point x="662" y="175" type="line"/>
      <point x="501" y="175" type="line"/>
      <point x="501" y="543" type="line"/>
      <point x="656" y="543" type="line"/>
      <point x="670" y="519"/>
      <point x="678" y="515"/>
      <point x="710" y="510" type="curve" smooth="yes"/>
      <point x="793" y="498" type="line" smooth="yes"/>
      <point x="843" y="490"/>
      <point x="868" y="500"/>
      <point x="868" y="549" type="curve" smooth="yes"/>
      <point x="868" y="573" type="line"/>
      <point x="858" y="573" type="line"/>
      <point x="858" y="549" type="line" smooth="yes"/>
      <point x="858" y="508"/>
      <point x="835" y="503"/>
      <point x="795" y="508" type="curve" smooth="yes"/>
      <point x="710" y="520" type="line" smooth="yes"/>
      <point x="681" y="524"/>
      <point x="676" y="528"/>
      <point x="662" y="553" type="curve"/>
      <point x="285" y="553" type="line" smooth="yes"/>
      <point x="204" y="553"/>
      <point x="150" y="514"/>
      <point x="150" y="359" type="curve" smooth="yes"/>
      <point x="150" y="202"/>
      <point x="204" y="165"/>
      <point x="285" y="165" type="curve" smooth="yes"/>
    </contour>
    <contour>
      <point x="285" y="175" type="line" smooth="yes"/>
      <point x="210" y="175"/>
      <point x="160" y="210"/>
      <point x="160" y="359" type="curve" smooth="yes"/>
      <point x="160" y="506"/>
      <point x="210" y="543"/>
      <point x="285" y="543" type="curve" smooth="yes"/>
      <point x="491" y="543" type="line"/>
      <point x="491" y="175" type="line"/>
    </contour>
  </outline>
</glyph>
<glyph name="Eogonek.salt" format="1">
  <advance width="955"/>
  <unicode hex="E112"/>
  <outline>
    <contour>
      <point x="533" y="168" type="line" smooth="yes"/>
      <point x="626" y="168"/>
      <point x="662" y="198"/>
      <point x="662" y="328" type="curve" smooth="yes"/>
      <point x="662" y="521" type="line"/>
      <point x="674" y="505"/>
      <point x="684" y="501"/>
      <point x="710" y="497" type="curve" smooth="yes"/>
      <point x="793" y="485" type="line" smooth="yes"/>
      <point x="843" y="477"/>
      <point x="868" y="487"/>
      <point x="868" y="536" type="curve" smooth="yes"/>
      <point x="868" y="560" type="line"/>
      <point x="858" y="560" type="line"/>
      <point x="858" y="536" type="line" smooth="yes"/>
      <point x="858" y="495"/>
      <point x="835" y="490"/>
      <point x="795" y="495" type="curve" smooth="yes"/>
      <point x="710" y="507" type="line" smooth="yes"/>
      <point x="681" y="511"/>
      <point x="676" y="515"/>
      <point x="662" y="540" type="curve"/>
      <point x="662" y="560" type="line"/>
      <point x="652" y="560" type="line"/>
      <point x="652" y="328" type="line" smooth="yes"/>
      <point x="652" y="208"/>
      <point x="620" y="178"/>
      <point x="533" y="178" type="curve" smooth="yes"/>
      <point x="413" y="178" type="line"/>
      <point x="413" y="480" type="line"/>
      <point x="403" y="480" type="line"/>
      <point x="403" y="178" type="line"/>
      <point x="293" y="178" type="line" smooth="yes"/>
      <point x="204" y="178"/>
      <point x="172" y="210"/>
      <point x="172" y="328" type="curve" smooth="yes"/>
      <point x="172" y="560" type="line"/>
      <point x="162" y="560" type="line"/>
      <point x="162" y="328" type="line" smooth="yes"/>
      <point x="162" y="200"/>
      <point x="198" y="168"/>
      <point x="293" y="168" type="curve" smooth="yes"/>
    </contour>
  </outline>
</glyph>
<glyph name="Iogonek.salt" format="1">
  <advance width="938"/>
  <unicode hex="E11C"/>
  <outline>
    <contour>
      <point x="851" y="357" type="curve" smooth="yes"/>
      <point x="851" y="381" type="line"/>
      <point x="841" y="381" type="line"/>
      <point x="841" y="357" type="line" smooth="yes"/>
      <point x="841" y="316"/>
      <point x="818" y="311"/>
      <point x="778" y="316" type="curve" smooth="yes"/>
      <point x="693" y="328" type="line" smooth="yes"/>
      <point x="664" y="332"/>
      <point x="659" y="336"/>
      <point x="645" y="361" type="curve"/>
      <point x="645" y="365" type="line"/>
      <point x="145" y="365" type="line"/>
      <point x="145" y="355" type="line"/>
      <point x="637" y="355" type="line"/>
      <point x="653" y="327"/>
      <point x="661" y="323"/>
      <point x="693" y="318" type="curve" smooth="yes"/>
      <point x="776" y="306" type="line" smooth="yes"/>
      <point x="826" y="298"/>
      <point x="851" y="308"/>
    </contour>
  </outline>
</glyph>
<glyph name="L.salt" format="1">
  <advance width="855"/>
  <unicode hex="E11E"/>
  <outline>
    <contour>
      <point x="145" y="166" type="line"/>
      <point x="683" y="166" type="line"/>
      <point x="683" y="557" type="line"/>
      <point x="673" y="557" type="line"/>
      <point x="673" y="176" type="line"/>
      <point x="145" y="176" type="line"/>
    </contour>
  </outline>
</glyph>
<glyph name="Lslash.salt" format="1">
  <advance width="855"/>
  <unicode hex="E123"/>
  <outline>
    <contour>
      <point x="683" y="166" type="line"/>
      <point x="683" y="557" type="line"/>
      <point x="673" y="557" type="line"/>
      <point x="673" y="176" type="line"/>
      <point x="386" y="176" type="line"/>
      <point x="388" y="166" type="line"/>
    </contour>
    <contour>
      <point x="390" y="94" type="line"/>
      <point x="400" y="94" type="line"/>
      <point x="388" y="166" type="line"/>
      <point x="378" y="166" type="line"/>
      <point x="376" y="176" type="line"/>
      <point x="386" y="176" type="line"/>
      <point x="367" y="294" type="line"/>
      <point x="357" y="294" type="line"/>
      <point x="376" y="176" type="line"/>
      <point x="145" y="176" type="line"/>
      <point x="145" y="166" type="line"/>
      <point x="378" y="166" type="line"/>
    </contour>
  </outline>
</glyph>
<glyph name="Ncommaaccent.salt" format="1">
  <advance width="982"/>
  <unicode hex="E128"/>
  <outline>
    <contour>
      <point x="562" y="550" type="line"/>
      <point x="265" y="550" type="line" smooth="yes"/>
      <point x="184" y="550"/>
      <point x="130" y="509"/>
      <point x="130" y="359" type="curve" smooth="yes"/>
      <point x="130" y="209"/>
      <point x="184" y="167"/>
      <point x="265" y="167" type="curve" smooth="yes"/>
      <point x="562" y="167" type="line"/>
      <point x="562" y="177" type="line"/>
      <point x="265" y="177" type="line" smooth="yes"/>
      <point x="190" y="177"/>
      <point x="140" y="217"/>
      <point x="140" y="359" type="curve" smooth="yes"/>
      <point x="140" y="501"/>
      <point x="190" y="540"/>
      <point x="265" y="540" type="curve" smooth="yes"/>
      <point x="562" y="540" type="line"/>
    </contour>
    <contour>
      <point x="751" y="295" type="line"/>
      <point x="761" y="295" type="line"/>
      <point x="761" y="417" type="line"/>
      <point x="838" y="417" type="line" smooth="yes"/>
      <point x="885" y="417"/>
      <point x="909" y="391"/>
      <point x="909" y="349" type="curve" smooth="yes"/>
      <point x="909" y="295" type="line"/>
      <point x="919" y="295" type="line"/>
      <point x="919" y="349" type="line" smooth="yes"/>
      <point x="919" y="397"/>
      <point x="892" y="427"/>
      <point x="838" y="427" type="curve" smooth="yes"/>
      <point x="751" y="427" type="line"/>
    </contour>
  </outline>
</glyph>
<glyph name="W.salt" format="1">
  <advance width="882"/>
  <unicode hex="E12A"/>
  <outline>
    <contour>
      <point x="587.0" y="101" type="line" smooth="yes"/>
      <point x="668.0" y="101"/>
      <point x="722.0" y="132"/>
      <point x="722.0" y="234" type="curve" smooth="yes"/>
      <point x="722.0" y="315"/>
      <point x="688.0" y="349"/>
      <point x="633.0" y="360" type="curve"/>
      <point x="688.0" y="371"/>
      <point x="722.0" y="406"/>
      <point x="722.0" y="487" type="curve" smooth="yes"/>
      <point x="722.0" y="589"/>
      <point x="668.0" y="618"/>
      <point x="587.0" y="618" type="curve" smooth="yes"/>
      <point x="170.0" y="618" type="line"/>
      <point x="170.0" y="608" type="line"/>
      <point x="587.0" y="608" type="line" smooth="yes"/>
      <point x="662.0" y="608"/>
      <point x="712.0" y="581"/>
      <point x="712.0" y="487" type="curve" smooth="yes"/>
      <point x="712.0" y="392"/>
      <point x="662.0" y="365"/>
      <point x="587.0" y="365" type="curve" smooth="yes"/>
      <point x="170.0" y="365" type="line"/>
      <point x="170.0" y="355" type="line"/>
      <point x="587.0" y="355" type="line" smooth="yes"/>
      <point x="662.0" y="355"/>
      <point x="712.0" y="328"/>
      <point x="712.0" y="234" type="curve" smooth="yes"/>
      <point x="712.0" y="140"/>
      <point x="662.0" y="111"/>
      <point x="587.0" y="111" type="curve" smooth="yes"/>
      <point x="170.0" y="111" type="line"/>
      <point x="170.0" y="101" type="line"/>
    </contour>
  </outline>
</glyph>
<glyph name="arrowdown.chevron" format="1">
  <advance width="1280.0"/>
  <unicode hex="E164"/>
  <outline>
    <contour>
      <point x="-45.0" y="-160.0" type="line"/>
      <point x="747.0" y="-160.0" type="line"/>
      <point x="747.0" y="-315.0" type="line"/>
      <point x="747.0" y="-329.0"/>
      <point x="753.0" y="-334.0"/>
      <point x="765.0" y="-334.0" type="curve" smooth="yes"/>
      <point x="774.0" y="-334.0"/>
      <point x="784.0" y="-329.0"/>
      <point x="791.0" y="-320.0" type="curve" smooth="yes"/>
      <point x="1308.0" y="314.0" type="line" smooth="yes"/>
      <point x="1323.0" y="332.0"/>
      <point x="1331.0" y="346.0"/>
      <point x="1331.0" y="361.0" type="curve" smooth="yes"/>
      <point x="1331.0" y="376.0"/>
      <point x="1323.0" y="390.0"/>
      <point x="1308.0" y="408.0" type="curve" smooth="yes"/>
      <point x="792.0" y="1034.0" type="line" smooth="yes"/>
      <point x="780.0" y="1047.0"/>
      <point x="772.0" y="1054.0"/>
      <point x="762.0" y="1054.0" type="curve" smooth="yes"/>
      <point x="753.0" y="1054.0"/>
      <point x="747.0" y="1051.0"/>
      <point x="747.0" y="1031.0" type="curve" smooth="yes"/>
      <point x="747.0" y="880.0" type="line"/>
      <point x="-48.0" y="880.0" type="line"/>
      <point x="159.0" y="360.0" type="line"/>
    </contour>
    <contour>
      <point x="-32.0" y="-150.0" type="line"/>
      <point x="170.0" y="360.0" type="line"/>
      <point x="-33.0" y="870.0" type="line"/>
      <point x="757.0" y="870.0" type="line"/>
      <point x="757.0" y="1031.0" type="line"/>
      <point x="757.0" y="1038.0"/>
      <point x="757.0" y="1044.0"/>
      <point x="762.0" y="1044.0" type="curve" smooth="yes"/>
      <point x="770.0" y="1044.0"/>
      <point x="776.0" y="1037.0"/>
      <point x="784.0" y="1028.0" type="curve" smooth="yes"/>
      <point x="1300.0" y="402.0" type="line" smooth="yes"/>
      <point x="1313.0" y="386.0"/>
      <point x="1321.0" y="374.0"/>
      <point x="1321.0" y="361.0" type="curve" smooth="yes"/>
      <point x="1321.0" y="348.0"/>
      <point x="1313.0" y="336.0"/>
      <point x="1300.0" y="320.0" type="curve" smooth="yes"/>
      <point x="783.0" y="-314.0" type="line" smooth="yes"/>
      <point x="778.0" y="-321.0"/>
      <point x="772.0" y="-324.0"/>
      <point x="765.0" y="-324.0" type="curve" smooth="yes"/>
      <point x="759.0" y="-324.0"/>
      <point x="757.0" y="-321.0"/>
      <point x="757.0" y="-315.0" type="curve" smooth="yes"/>
      <point x="757.0" y="-150.0" type="line"/>
    </contour>
  </outline>
</glyph>
<glyph name="uni25DD.curve_v" format="1">
  <advance width="1280.0"/>
  <unicode hex="FF3C"/>
  <outline>
    <contour>
      <point x="1160.0" y="880.0" type="line"/>
      <point x="120.0" y="880.0" type="line"/>
      <point x="120.0" y="301.0" type="line"/>
      <point x="120.0" y="8.0"/>
      <point x="288.0" y="-160.0"/>
      <point x="580.0" y="-160.0" type="curve" smooth="yes"/>
      <point x="1160.0" y="-160.0" type="line" smooth="yes"/>
    </contour>
    <contour>
      <point x="130.0" y="870.0" type="line" smooth="yes"/>
      <point x="1150.0" y="870.0" type="line"/>
      <point x="1150.0" y="-150.0" type="line"/>
      <point x="580.0" y="-150.0" type="line" smooth="yes"/>
      <point x="294.0" y="-150.0"/>
      <point x="130.0" y="14.0"/>
      <point x="130.0" y="301.0" type="curve" smooth="yes"/>
    </contour>
  </outline>
</glyph>
<glyph name="AE.salt" format="1">
  <advance width="872"/>
  <outline>
    <contour>
      <point x="702.0" y="436" type="line"/>
      <point x="702.0" y="591" type="line"/>
      <point x="692.0" y="591" type="line"/>
      <point x="692.0" y="446" type="line"/>
      <point x="434.0" y="446" type="line"/>
      <point x="434.0" y="590" type="line"/>
      <point x="424.0" y="590" type="line"/>
      <point x="424.0" y="446" type="line"/>
      <point x="172.0" y="446" type="line" smooth="yes"/>
      <point x="172.0" y="591" type="line"/>
      <point x="162.0" y="591" type="line"/>
      <point x="162.0" y="303" type="line" smooth="yes"/>
      <point x="162.0" y="170"/>
      <point x="216.0" y="136"/>
      <point x="297.0" y="136" type="curve" smooth="yes"/>
      <point x="703.0" y="136" type="line"/>
      <point x="703.0" y="146" type="line"/>
      <point x="521.0" y="146" type="line"/>
      <point x="521.0" y="436" type="line"/>
    </contour>
    <contour>
      <point x="297.0" y="146" type="line" smooth="yes"/>
      <point x="222.0" y="146"/>
      <point x="172.0" y="178"/>
      <point x="172.0" y="303" type="curve" smooth="yes"/>
      <point x="172.0" y="436" type="line"/>
      <point x="511.0" y="436" type="line"/>
      <point x="511.0" y="146" type="line"/>
    </contour>
  </outline>
</glyph>
<glyph name="E.s" format="1">
  <advance width="840"/>
  <outline>
    <contour>
      <point x="670.0" y="168" type="line"/>
      <point x="670.0" y="561" type="line"/>
      <point x="660.0" y="561" type="line"/>
      <point x="660.0" y="178" type="line"/>
      <point x="421.0" y="178" type="line"/>
      <point x="421.0" y="480" type="line"/>
      <point x="411.0" y="480" type="line"/>
      <point x="411.0" y="178" type="line"/>
      <point x="180.0" y="178" type="line"/>
      <point x="180.0" y="561" type="line"/>
      <point x="170.0" y="561" type="line"/>
      <point x="170.0" y="168" type="line"/>
    </contour>
  </outline>
</glyph>
<glyph name="G.s" format="1">
  <advance width="819"/>
  <outline>
    <contour>
      <point x="290.0" y="164" type="curve" smooth="yes"/>
      <point x="528.0" y="164" type="line" smooth="yes"/>
      <point x="621.0" y="164"/>
      <point x="657.0" y="197"/>
      <point x="657.0" y="344" type="curve" smooth="yes"/>
      <point x="657.0" y="552" type="line"/>
      <point x="456.0" y="552" type="line"/>
      <point x="456.0" y="542" type="line"/>
      <point x="647.0" y="542" type="line"/>
      <point x="647.0" y="344" type="line" smooth="yes"/>
      <point x="647.0" y="209"/>
      <point x="615.0" y="174"/>
      <point x="528.0" y="174" type="curve" smooth="yes"/>
      <point x="290.0" y="174" type="line" smooth="yes"/>
      <point x="201.0" y="174"/>
      <point x="169.0" y="206"/>
      <point x="169.0" y="324" type="curve" smooth="yes"/>
      <point x="169.0" y="505" type="line"/>
      <point x="159.0" y="505" type="line"/>
      <point x="159.0" y="324" type="line" smooth="yes"/>
      <point x="159.0" y="196"/>
      <point x="195.0" y="164"/>
    </contour>
  </outline>
</glyph>
<glyph name="H.s" format="1">
  <advance width="814"/>
  <outline>
    <contour>
      <point x="157.0" y="169" type="line"/>
      <point x="657.0" y="169" type="line"/>
      <point x="657.0" y="179" type="line"/>
      <point x="412.0" y="179" type="line"/>
      <point x="412.0" y="541" type="line"/>
      <point x="657.0" y="541" type="line"/>
      <point x="657.0" y="551" type="line"/>
      <point x="157.0" y="551" type="line"/>
      <point x="157.0" y="541" type="line"/>
      <point x="402.0" y="541" type="line"/>
      <point x="402.0" y="179" type="line"/>
      <point x="157.0" y="179" type="line"/>
    </contour>
  </outline>
</glyph>
<glyph name="I.s" format="1">
  <advance width="840"/>
  <outline>
    <contour>
      <point x="660.0" y="159" type="line"/>
      <point x="670.0" y="159" type="line"/>
      <point x="670.0" y="561" type="line"/>
      <point x="660.0" y="561" type="line"/>
      <point x="660.0" y="365" type="line"/>
      <point x="180.0" y="365" type="line"/>
      <point x="180.0" y="561" type="line"/>
      <point x="170.0" y="561" type="line"/>
      <point x="170.0" y="159" type="line"/>
      <point x="180.0" y="159" type="line"/>
      <point x="180.0" y="355" type="line"/>
      <point x="660.0" y="355" type="line"/>
    </contour>
  </outline>
</glyph>
<glyph name="I_I.salt" format="1">
  <advance width="854"/>
  <outline>
    <contour>
      <point x="157.0" y="541" type="line"/>
      <point x="697.0" y="541" type="line"/>
      <point x="697.0" y="551" type="line"/>
      <point x="157.0" y="551" type="line"/>
    </contour>
    <contour>
      <point x="157.0" y="169" type="line"/>
      <point x="697.0" y="169" type="line"/>
      <point x="697.0" y="179" type="line"/>
      <point x="157.0" y="179" type="line"/>
    </contour>
  </outline>
</glyph>
<glyph name="L.s" format="1">
  <advance width="815"/>
  <outline>
    <contour>
      <point x="145.0" y="170" type="line"/>
      <point x="645.0" y="170" type="line"/>
      <point x="645.0" y="557" type="line"/>
      <point x="448.0" y="557" type="line"/>
      <point x="448.0" y="547" type="line"/>
      <point x="635.0" y="547" type="line"/>
      <point x="635.0" y="180" type="line"/>
      <point x="145.0" y="180" type="line"/>
    </contour>
  </outline>
</glyph>
<glyph name="L.salt_s" format="1">
  <advance width="815.0"/>
  <outline>
    <contour>
      <point x="145" y="166" type="line"/>
      <point x="145" y="176" type="line"/>
      <point x="638" y="176" type="line"/>
      <point x="633" y="171" type="line"/>
      <point x="633" y="557" type="line"/>
      <point x="643" y="557" type="line"/>
      <point x="643" y="166" type="line"/>
    </contour>
  </outline>
</glyph>
<glyph name="N.s" format="1">
  <advance width="814"/>
  <outline>
    <contour>
      <point x="156.0" y="178" type="curve" smooth="yes"/>
      <point x="156.0" y="172"/>
      <point x="160.0" y="166"/>
      <point x="168.0" y="166" type="curve" smooth="yes"/>
      <point x="657.0" y="166" type="line"/>
      <point x="657.0" y="176" type="line"/>
      <point x="170.0" y="176" type="line" smooth="yes"/>
      <point x="169.0" y="176"/>
      <point x="167.0" y="176"/>
      <point x="167.0" y="178" type="curve" smooth="yes"/>
      <point x="167.0" y="180"/>
      <point x="168.0" y="181"/>
      <point x="170.0" y="183" type="curve" smooth="yes"/>
      <point x="574.0" y="545" type="line"/>
      <point x="657.0" y="545" type="line"/>
      <point x="657.0" y="555" type="line"/>
      <point x="157.0" y="555" type="line"/>
      <point x="157.0" y="545" type="line"/>
      <point x="559.0" y="545" type="line"/>
      <point x="165.0" y="193" type="line"/>
      <point x="158.0" y="186"/>
      <point x="156.0" y="184"/>
    </contour>
  </outline>
</glyph>
<glyph name="O.s" format="1">
  <advance width="824"/>
  <outline>
    <contour>
      <point x="540.0" y="556" type="curve" smooth="yes"/>
      <point x="285.0" y="556" type="line" smooth="yes"/>
      <point x="204.0" y="556"/>
      <point x="150.0" y="511"/>
      <point x="150.0" y="359" type="curve" smooth="yes"/>
      <point x="150.0" y="207"/>
      <point x="204.0" y="165"/>
      <point x="285.0" y="165" type="curve" smooth="yes"/>
      <point x="540.0" y="165" type="line" smooth="yes"/>
      <point x="621.0" y="165"/>
      <point x="675.0" y="207"/>
      <point x="675.0" y="359" type="curve" smooth="yes"/>
      <point x="675.0" y="511"/>
      <point x="621.0" y="556"/>
    </contour>
    <contour>
      <point x="540.0" y="175" type="curve" smooth="yes"/>
      <point x="285.0" y="175" type="line" smooth="yes"/>
      <point x="210.0" y="175"/>
      <point x="160.0" y="215"/>
      <point x="160.0" y="359" type="curve" smooth="yes"/>
      <point x="160.0" y="503"/>
      <point x="210.0" y="546"/>
      <point x="285.0" y="546" type="curve" smooth="yes"/>
      <point x="540.0" y="546" type="line" smooth="yes"/>
      <point x="615.0" y="546"/>
      <point x="665.0" y="503"/>
      <point x="665.0" y="359" type="curve" smooth="yes"/>
      <point x="665.0" y="215"/>
      <point x="615.0" y="175"/>
    </contour>
  </outline>
</glyph>
<glyph name="Y.salt_s" format="1">
  <advance width="801"/>
  <outline>
    <contour>
      <point x="656.0" y="355" type="line"/>
      <point x="656.0" y="365" type="line"/>
      <point x="474.0" y="365" type="line"/>
      <point x="474.0" y="510"/>
      <point x="420.0" y="552"/>
      <point x="339.0" y="552" type="curve" smooth="yes"/>
      <point x="156.0" y="552" type="line"/>
      <point x="156.0" y="542" type="line"/>
      <point x="339.0" y="542" type="line" smooth="yes"/>
      <point x="414.0" y="542"/>
      <point x="464.0" y="502"/>
      <point x="464.0" y="360" type="curve" smooth="yes"/>
      <point x="464.0" y="218"/>
      <point x="414.0" y="179"/>
      <point x="339.0" y="179" type="curve" smooth="yes"/>
      <point x="156.0" y="179" type="line"/>
      <point x="156.0" y="169" type="line"/>
      <point x="339.0" y="169" type="line" smooth="yes"/>
      <point x="419.0" y="169"/>
      <point x="473.0" y="209"/>
      <point x="474.0" y="355" type="curve"/>
    </contour>
  </outline>
</glyph>
<glyph name="ampersand.salt" format="1">
  <advance width="1009"/>
  <outline>
    <contour>
      <point x="234.0" y="404" type="line"/>
      <point x="144.0" y="404" type="line"/>
      <point x="144.0" y="394" type="line"/>
      <point x="234.0" y="394" type="line"/>
      <point x="234.0" y="359" type="line" smooth="yes"/>
      <point x="234.0" y="248"/>
      <point x="282.0" y="228"/>
      <point x="340.0" y="228" type="curve" smooth="yes"/>
      <point x="404.0" y="228" type="line" smooth="yes"/>
      <point x="442.0" y="228"/>
      <point x="479.0" y="234"/>
      <point x="496.0" y="284" type="curve"/>
      <point x="498.0" y="180"/>
      <point x="546.0" y="162"/>
      <point x="610.0" y="162" type="curve" smooth="yes"/>
      <point x="674.0" y="162" type="line" smooth="yes"/>
      <point x="733.0" y="162"/>
      <point x="774.0" y="181"/>
      <point x="774.0" y="293" type="curve" smooth="yes"/>
      <point x="774.0" y="394" type="line"/>
      <point x="864.0" y="394" type="line"/>
      <point x="864.0" y="404" type="line"/>
      <point x="774.0" y="404" type="line"/>
      <point x="774.0" y="571" type="line"/>
      <point x="764.0" y="571" type="line"/>
      <point x="764.0" y="293" type="line" smooth="yes"/>
      <point x="764.0" y="193"/>
      <point x="729.0" y="172"/>
      <point x="674.0" y="172" type="curve" smooth="yes"/>
      <point x="605.0" y="172" type="line" smooth="yes"/>
      <point x="548.0" y="172"/>
      <point x="505.0" y="194"/>
      <point x="505.0" y="292" type="curve"/>
      <point x="505.0" y="490" type="line"/>
      <point x="495.0" y="490" type="line"/>
      <point x="495.0" y="349" type="line" smooth="yes"/>
      <point x="495.0" y="248"/>
      <point x="452.0" y="238"/>
      <point x="404.0" y="238" type="curve" smooth="yes"/>
      <point x="336.0" y="238" type="line" smooth="yes"/>
      <point x="284.0" y="238"/>
      <point x="244.0" y="261"/>
      <point x="244.0" y="359" type="curve"/>
      <point x="244.0" y="571" type="line"/>
      <point x="234.0" y="571" type="line"/>
    </contour>
  </outline>
</glyph>
<glyph name="arrowup.chevron" format="1">
  <advance width="1014"/>
  <outline>
    <contour>
      <point x="1196.0" y="880" type="line"/>
      <point x="404.0" y="880" type="line"/>
      <point x="404.0" y="1035" type="line"/>
      <point x="404.0" y="1049"/>
      <point x="398.0" y="1054"/>
      <point x="386.0" y="1054" type="curve" smooth="yes"/>
      <point x="377.0" y="1054"/>
      <point x="367.0" y="1049"/>
      <point x="360.0" y="1040" type="curve" smooth="yes"/>
      <point x="-157.0" y="406" type="line" smooth="yes"/>
      <point x="-172.0" y="388"/>
      <point x="-180.0" y="374"/>
      <point x="-180.0" y="359" type="curve" smooth="yes"/>
      <point x="-180.0" y="344"/>
      <point x="-172.0" y="330"/>
      <point x="-157.0" y="312" type="curve" smooth="yes"/>
      <point x="359.0" y="-314" type="line" smooth="yes"/>
      <point x="371.0" y="-327"/>
      <point x="379.0" y="-334"/>
      <point x="389.0" y="-334" type="curve" smooth="yes"/>
      <point x="398.0" y="-334"/>
      <point x="404.0" y="-331"/>
      <point x="404.0" y="-311" type="curve" smooth="yes"/>
      <point x="404.0" y="-160" type="line"/>
      <point x="1199.0" y="-160" type="line"/>
      <point x="992.0" y="360" type="line"/>
    </contour>
    <contour>
      <point x="1183.0" y="870" type="line"/>
      <point x="981.0" y="360" type="line"/>
      <point x="1184.0" y="-150" type="line"/>
      <point x="394.0" y="-150" type="line"/>
      <point x="394.0" y="-311" type="line"/>
      <point x="394.0" y="-318"/>
      <point x="394.0" y="-324"/>
      <point x="389.0" y="-324" type="curve" smooth="yes"/>
      <point x="381.0" y="-324"/>
      <point x="375.0" y="-317"/>
      <point x="367.0" y="-308" type="curve" smooth="yes"/>
      <point x="-149.0" y="318" type="line" smooth="yes"/>
      <point x="-162.0" y="334"/>
      <point x="-170.0" y="346"/>
      <point x="-170.0" y="359" type="curve" smooth="yes"/>
      <point x="-170.0" y="372"/>
      <point x="-162.0" y="384"/>
      <point x="-149.0" y="400" type="curve" smooth="yes"/>
      <point x="368.0" y="1034" type="line" smooth="yes"/>
      <point x="373.0" y="1041"/>
      <point x="379.0" y="1044"/>
      <point x="386.0" y="1044" type="curve" smooth="yes"/>
      <point x="392.0" y="1044"/>
      <point x="394.0" y="1041"/>
      <point x="394.0" y="1035" type="curve" smooth="yes"/>
      <point x="394.0" y="870" type="line"/>
    </contour>
  </outline>
</glyph>
<glyph name="equal.salt" format="1">
  <advance width="1000"/>
  <outline>
    <contour>
      <point x="800.0" y="824" type="line" smooth="yes"/>
      <point x="800.0" y="836"/>
      <point x="796.0" y="840"/>
      <point x="784.0" y="840" type="curve" smooth="yes"/>
      <point x="716.0" y="840" type="line" smooth="yes"/>
      <point x="704.0" y="840"/>
      <point x="700.0" y="836"/>
      <point x="700.0" y="824" type="curve" smooth="yes"/>
      <point x="700.0" y="-104" type="line" smooth="yes"/>
      <point x="700.0" y="-116"/>
      <point x="704.0" y="-120"/>
      <point x="716.0" y="-120" type="curve" smooth="yes"/>
      <point x="784.0" y="-120" type="line" smooth="yes"/>
      <point x="796.0" y="-120"/>
      <point x="800.0" y="-116"/>
      <point x="800.0" y="-104" type="curve" smooth="yes"/>
    </contour>
    <contour>
      <point x="300.0" y="824" type="line" smooth="yes"/>
      <point x="300.0" y="836"/>
      <point x="296.0" y="840"/>
      <point x="284.0" y="840" type="curve" smooth="yes"/>
      <point x="216.0" y="840" type="line" smooth="yes"/>
      <point x="204.0" y="840"/>
      <point x="200.0" y="836"/>
      <point x="200.0" y="824" type="curve" smooth="yes"/>
      <point x="200.0" y="-104" type="line" smooth="yes"/>
      <point x="200.0" y="-116"/>
      <point x="204.0" y="-120"/>
      <point x="216.0" y="-120" type="curve" smooth="yes"/>
      <point x="284.0" y="-120" type="line" smooth="yes"/>
      <point x="296.0" y="-120"/>
      <point x="300.0" y="-116"/>
      <point x="300.0" y="-104" type="curve" smooth="yes"/>
    </contour>
    <contour>
      <point x="784.0" y="-110" type="curve" smooth="yes"/>
      <point x="716.0" y="-110" type="line" smooth="yes"/>
      <point x="712.0" y="-110"/>
      <point x="710.0" y="-108"/>
      <point x="710.0" y="-104" type="curve" smooth="yes"/>
      <point x="710.0" y="824" type="line" smooth="yes"/>
      <point x="710.0" y="828"/>
      <point x="712.0" y="830"/>
      <point x="716.0" y="830" type="curve" smooth="yes"/>
      <point x="784.0" y="830" type="line" smooth="yes"/>
      <point x="788.0" y="830"/>
      <point x="790.0" y="828"/>
      <point x="790.0" y="824" type="curve" smooth="yes"/>
      <point x="790.0" y="-104" type="line" smooth="yes"/>
      <point x="790.0" y="-108"/>
      <point x="788.0" y="-110"/>
    </contour>
    <contour>
      <point x="284.0" y="-110" type="curve" smooth="yes"/>
      <point x="216.0" y="-110" type="line" smooth="yes"/>
      <point x="212.0" y="-110"/>
      <point x="210.0" y="-108"/>
      <point x="210.0" y="-104" type="curve" smooth="yes"/>
      <point x="210.0" y="824" type="line" smooth="yes"/>
      <point x="210.0" y="828"/>
      <point x="212.0" y="830"/>
      <point x="216.0" y="830" type="curve" smooth="yes"/>
      <point x="284.0" y="830" type="line" smooth="yes"/>
      <point x="288.0" y="830"/>
      <point x="290.0" y="828"/>
      <point x="290.0" y="824" type="curve" smooth="yes"/>
      <point x="290.0" y="-104" type="line" smooth="yes"/>
      <point x="290.0" y="-108"/>
      <point x="288.0" y="-110"/>
    </contour>
  </outline>
</glyph>
<glyph name="quoteright.salt" format="1">
  <advance width="344"/>
  <outline>
    <contour>
      <point x="126.0" y="111" type="line"/>
      <point x="126.0" y="199" type="line"/>
      <point x="202.0" y="199" type="line" smooth="yes"/>
      <point x="235.0" y="199"/>
      <point x="266.0" y="186"/>
      <point x="266.0" y="153" type="curve" smooth="yes"/>
      <point x="266.0" y="112" type="line"/>
      <point x="276.0" y="112" type="line"/>
      <point x="276.0" y="153" type="line" smooth="yes"/>
      <point x="276.0" y="192"/>
      <point x="241.0" y="209"/>
      <point x="202.0" y="209" type="curve" smooth="yes"/>
      <point x="116.0" y="209" type="line"/>
      <point x="116.0" y="111" type="line"/>
    </contour>
  </outline>
</glyph>
<glyph name="uni25D6.rounded" format="1">
  <advance width="1000"/>
  <outline>
    <contour>
      <point x="-10.0" y="575" type="line"/>
      <point x="-20.0" y="575" type="line"/>
      <point x="-20.0" y="510" type="line" smooth="yes"/>
      <point x="-20.0" y="363"/>
      <point x="100.0" y="275"/>
      <point x="500.0" y="275" type="curve" smooth="yes"/>
      <point x="900.0" y="275"/>
      <point x="1020.0" y="363"/>
      <point x="1020.0" y="510" type="curve" smooth="yes"/>
      <point x="1020.0" y="575" type="line"/>
      <point x="1010.0" y="575" type="line"/>
      <point x="1010.0" y="510" type="line" smooth="yes"/>
      <point x="1010.0" y="365"/>
      <point x="883.0" y="285"/>
      <point x="500.0" y="285" type="curve" smooth="yes"/>
      <point x="117.0" y="285"/>
      <point x="-10.0" y="365"/>
      <point x="-10.0" y="510" type="curve" smooth="yes"/>
    </contour>
  </outline>
</glyph>
<glyph name="uni25D6.spike" format="1">
  <advance width="1000"/>
  <outline>
    <contour>
      <point x="759.0" y="417" type="line" smooth="yes"/>
      <point x="740.0" y="424"/>
      <point x="713.0" y="422"/>
      <point x="697.0" y="408" type="curve" smooth="yes"/>
      <point x="508.0" y="251" type="line" smooth="yes"/>
      <point x="504.0" y="247"/>
      <point x="496.0" y="247"/>
      <point x="492.0" y="251" type="curve" smooth="yes"/>
      <point x="303.0" y="408" type="line" smooth="yes"/>
      <point x="287.0" y="422"/>
      <point x="261.0" y="424"/>
      <point x="242.0" y="417" type="curve" smooth="yes"/>
      <point x="-25.0" y="312" type="line" smooth="yes"/>
      <point x="-28.0" y="310"/>
      <point x="-32.0" y="309"/>
      <point x="-31.0" y="314" type="curve" smooth="yes"/>
      <point x="-14.0" y="461" type="line" smooth="yes"/>
      <point x="-10.0" y="496"/>
      <point x="-10.0" y="502"/>
      <point x="-10.0" y="523" type="curve" smooth="yes"/>
      <point x="-10.0" y="575" type="line"/>
      <point x="-20.0" y="575" type="line"/>
      <point x="-20.0" y="523" type="line" smooth="yes"/>
      <point x="-20.0" y="502"/>
      <point x="-20.0" y="496"/>
      <point x="-24.0" y="463" type="curve" smooth="yes"/>
      <point x="-41.0" y="316" type="line" smooth="yes"/>
      <point x="-42.0" y="301"/>
      <point x="-40.0" y="296"/>
      <point x="-21.0" y="302" type="curve" smooth="yes"/>
      <point x="246.0" y="407" type="line" smooth="yes"/>
      <point x="261.0" y="414"/>
      <point x="283.0" y="412"/>
      <point x="297.0" y="400" type="curve" smooth="yes"/>
      <point x="486.0" y="243" type="line" smooth="yes"/>
      <point x="494.0" y="237"/>
      <point x="506.0" y="237"/>
      <point x="514.0" y="243" type="curve" smooth="yes"/>
      <point x="703.0" y="400" type="line" smooth="yes"/>
      <point x="717.0" y="412"/>
      <point x="739.0" y="413"/>
      <point x="754.0" y="407" type="curve" smooth="yes"/>
      <point x="1025.0" y="300" type="line" smooth="yes"/>
      <point x="1037.0" y="295"/>
      <point x="1044.0" y="301"/>
      <point x="1042.0" y="311" type="curve"/>
      <point x="1024.0" y="463" type="line" smooth="yes"/>
      <point x="1020.0" y="496"/>
      <point x="1020.0" y="502"/>
      <point x="1020.0" y="523" type="curve" smooth="yes"/>
      <point x="1020.0" y="575" type="line"/>
      <point x="1010.0" y="575" type="line"/>
      <point x="1010.0" y="523" type="line" smooth="yes"/>
      <point x="1010.0" y="502"/>
      <point x="1010.0" y="496"/>
      <point x="1014.0" y="461" type="curve" smooth="yes"/>
      <point x="1031.0" y="318" type="line" smooth="yes"/>
      <point x="1032.0" y="310"/>
      <point x="1031.0" y="309"/>
      <point x="1029.0" y="310" type="curve" smooth="yes"/>
    </contour>
  </outline>
</glyph>
<glyph name="uni25D6.v_bevel" format="1">
  <advance width="350"/>
  <outline>
    <contour>
      <point x="390.0" y="881" type="line"/>
      <point x="306.0" y="881" type="line" smooth="yes"/>
      <point x="294.0" y="881"/>
      <point x="290.0" y="877"/>
      <point x="290.0" y="865" type="curve" smooth="yes"/>
      <point x="290.0" y="821" type="line"/>
      <point x="270.0" y="821" type="line" smooth="yes"/>
      <point x="204.0" y="821"/>
      <point x="150.0" y="767"/>
      <point x="150.0" y="701" type="curve" smooth="yes"/>
      <point x="150.0" y="681" type="line"/>
      <point x="106.0" y="681" type="line" smooth="yes"/>
      <point x="94.0" y="681"/>
      <point x="90.0" y="677"/>
      <point x="90.0" y="665" type="curve" smooth="yes"/>
      <point x="90.0" y="57" type="line" smooth="yes"/>
      <point x="90.0" y="45"/>
      <point x="94.0" y="41"/>
      <point x="106.0" y="41" type="curve" smooth="yes"/>
      <point x="150.0" y="41" type="line"/>
      <point x="150.0" y="21" type="line" smooth="yes"/>
      <point x="150.0" y="-45"/>
      <point x="204.0" y="-99"/>
      <point x="270.0" y="-99" type="curve" smooth="yes"/>
      <point x="290.0" y="-99" type="line"/>
      <point x="290.0" y="-143" type="line" smooth="yes"/>
      <point x="290.0" y="-155"/>
      <point x="294.0" y="-159"/>
      <point x="306.0" y="-159" type="curve" smooth="yes"/>
      <point x="390.0" y="-159" type="line"/>
      <point x="390.0" y="-149" type="line"/>
      <point x="306.0" y="-149" type="line" smooth="yes"/>
      <point x="302.0" y="-149"/>
      <point x="300.0" y="-147"/>
      <point x="300.0" y="-143" type="curve" smooth="yes"/>
      <point x="300.0" y="-89" type="line"/>
      <point x="270.0" y="-89" type="line" smooth="yes"/>
      <point x="210.0" y="-89"/>
      <point x="160.0" y="-39"/>
      <point x="160.0" y="21" type="curve" smooth="yes"/>
      <point x="160.0" y="51" type="line"/>
      <point x="106.0" y="51" type="line" smooth="yes"/>
      <point x="102.0" y="51"/>
      <point x="100.0" y="53"/>
      <point x="100.0" y="57" type="curve" smooth="yes"/>
      <point x="100.0" y="665" type="line" smooth="yes"/>
      <point x="100.0" y="669"/>
      <point x="102.0" y="671"/>
      <point x="106.0" y="671" type="curve" smooth="yes"/>
      <point x="160.0" y="671" type="line"/>
      <point x="160.0" y="701" type="line" smooth="yes"/>
      <point x="160.0" y="761"/>
      <point x="210.0" y="811"/>
      <point x="270.0" y="811" type="curve" smooth="yes"/>
      <point x="300.0" y="811" type="line"/>
      <point x="300.0" y="865" type="line" smooth="yes"/>
      <point x="300.0" y="869"/>
      <point x="302.0" y="871"/>
      <point x="306.0" y="871" type="curve" smooth="yes"/>
      <point x="390.0" y="871" type="line"/>
    </contour>
  </outline>
</glyph>
<glyph name="uni25D6.v_deco" format="1">
  <advance width="560"/>
  <outline>
    <contour>
      <point x="494.0" y="-239" type="curve" smooth="yes"/>
      <point x="416.0" y="-239" type="line" smooth="yes"/>
      <point x="412.0" y="-239"/>
      <point x="410.0" y="-237"/>
      <point x="410.0" y="-233" type="curve" smooth="yes"/>
      <point x="410.0" y="-179" type="line"/>
      <point x="380.0" y="-179" type="line" smooth="yes"/>
      <point x="320.0" y="-179"/>
      <point x="270.0" y="-129"/>
      <point x="270.0" y="-69" type="curve" smooth="yes"/>
      <point x="270.0" y="-44" type="line"/>
      <point x="266.0" y="-43" type="line"/>
      <point x="245.0" y="-39" type="line" smooth="yes"/>
      <point x="139.0" y="-21"/>
      <point x="80.0" y="96"/>
      <point x="80.0" y="361" type="curve" smooth="yes"/>
      <point x="80.0" y="626"/>
      <point x="139.0" y="743"/>
      <point x="245.0" y="761" type="curve" smooth="yes"/>
      <point x="270.0" y="766" type="line"/>
      <point x="270.0" y="791" type="line" smooth="yes"/>
      <point x="270.0" y="851"/>
      <point x="320.0" y="901"/>
      <point x="380.0" y="901" type="curve" smooth="yes"/>
      <point x="410.0" y="901" type="line"/>
      <point x="410.0" y="955" type="line" smooth="yes"/>
      <point x="410.0" y="959"/>
      <point x="412.0" y="961"/>
      <point x="416.0" y="961" type="curve" smooth="yes"/>
      <point x="494.0" y="961" type="line" smooth="yes"/>
      <point x="498.0" y="961"/>
      <point x="500.0" y="959"/>
      <point x="500.0" y="955" type="curve" smooth="yes"/>
      <point x="500.0" y="-233" type="line" smooth="yes"/>
      <point x="500.0" y="-237"/>
      <point x="498.0" y="-239"/>
    </contour>
    <contour>
      <point x="416.0" y="-249" type="curve" smooth="yes"/>
      <point x="494.0" y="-249" type="line" smooth="yes"/>
      <point x="506.0" y="-249"/>
      <point x="510.0" y="-245"/>
      <point x="510.0" y="-233" type="curve" smooth="yes"/>
      <point x="510.0" y="955" type="line" smooth="yes"/>
      <point x="510.0" y="967"/>
      <point x="506.0" y="971"/>
      <point x="494.0" y="971" type="curve" smooth="yes"/>
      <point x="416.0" y="971" type="line" smooth="yes"/>
      <point x="404.0" y="971"/>
      <point x="400.0" y="967"/>
      <point x="400.0" y="955" type="curve" smooth="yes"/>
      <point x="400.0" y="911" type="line"/>
      <point x="380.0" y="911" type="line" smooth="yes"/>
      <point x="314.0" y="911"/>
      <point x="260.0" y="857"/>
      <point x="260.0" y="791" type="curve" smooth="yes"/>
      <point x="260.0" y="774" type="line"/>
      <point x="243.0" y="771" type="line" smooth="yes"/>
      <point x="135.0" y="753"/>
      <point x="70.0" y="638"/>
      <point x="70.0" y="361" type="curve" smooth="yes"/>
      <point x="70.0" y="84"/>
      <point x="135.0" y="-31"/>
      <point x="243.0" y="-49" type="curve" smooth="yes"/>
      <point x="260.0" y="-52" type="line"/>
      <point x="260.0" y="-69" type="line" smooth="yes"/>
      <point x="260.0" y="-135"/>
      <point x="314.0" y="-189"/>
      <point x="380.0" y="-189" type="curve" smooth="yes"/>
      <point x="400.0" y="-189" type="line"/>
      <point x="400.0" y="-233" type="line" smooth="yes"/>
      <point x="400.0" y="-245"/>
      <point x="404.0" y="-249"/>
    </contour>
  </outline>
</glyph>
<glyph name="uni25D6.v_spike" format="1">
  <advance width="350"/>
  <outline>
    <contour>
      <point x="232.0" y="102" type="line" smooth="yes"/>
      <point x="239.0" y="121"/>
      <point x="237.0" y="148"/>
      <point x="223.0" y="164" type="curve" smooth="yes"/>
      <point x="66.0" y="353" type="line" smooth="yes"/>
      <point x="62.0" y="357"/>
      <point x="62.0" y="365"/>
      <point x="66.0" y="369" type="curve" smooth="yes"/>
      <point x="223.0" y="558" type="line" smooth="yes"/>
      <point x="237.0" y="574"/>
      <point x="239.0" y="600"/>
      <point x="232.0" y="619" type="curve" smooth="yes"/>
      <point x="127.0" y="886" type="line" smooth="yes"/>
      <point x="125.0" y="889"/>
      <point x="124.0" y="893"/>
      <point x="129.0" y="892" type="curve" smooth="yes"/>
      <point x="276.0" y="875" type="line" smooth="yes"/>
      <point x="311.0" y="871"/>
      <point x="317.0" y="871"/>
      <point x="338.0" y="871" type="curve" smooth="yes"/>
      <point x="390.0" y="871" type="line"/>
      <point x="390.0" y="881" type="line"/>
      <point x="338.0" y="881" type="line" smooth="yes"/>
      <point x="317.0" y="881"/>
      <point x="311.0" y="881"/>
      <point x="278.0" y="885" type="curve" smooth="yes"/>
      <point x="131.0" y="902" type="line" smooth="yes"/>
      <point x="116.0" y="903"/>
      <point x="111.0" y="901"/>
      <point x="117.0" y="882" type="curve" smooth="yes"/>
      <point x="222.0" y="615" type="line" smooth="yes"/>
      <point x="229.0" y="600"/>
      <point x="227.0" y="578"/>
      <point x="215.0" y="564" type="curve" smooth="yes"/>
      <point x="58.0" y="375" type="line" smooth="yes"/>
      <point x="52.0" y="367"/>
      <point x="52.0" y="355"/>
      <point x="58.0" y="347" type="curve" smooth="yes"/>
      <point x="215.0" y="158" type="line" smooth="yes"/>
      <point x="227.0" y="144"/>
      <point x="228.0" y="122"/>
      <point x="222.0" y="107" type="curve" smooth="yes"/>
      <point x="115.0" y="-164" type="line" smooth="yes"/>
      <point x="110.0" y="-176"/>
      <point x="116.0" y="-183"/>
      <point x="126.0" y="-181" type="curve"/>
      <point x="278.0" y="-163" type="line" smooth="yes"/>
      <point x="311.0" y="-159"/>
      <point x="317.0" y="-159"/>
      <point x="338.0" y="-159" type="curve" smooth="yes"/>
      <point x="390.0" y="-159" type="line"/>
      <point x="390.0" y="-149" type="line"/>
      <point x="338.0" y="-149" type="line" smooth="yes"/>
      <point x="317.0" y="-149"/>
      <point x="311.0" y="-149"/>
      <point x="276.0" y="-153" type="curve" smooth="yes"/>
      <point x="133.0" y="-170" type="line" smooth="yes"/>
      <point x="125.0" y="-171"/>
      <point x="124.0" y="-170"/>
      <point x="125.0" y="-168" type="curve" smooth="yes"/>
    </contour>
  </outline>
</glyph>
<glyph name="uni25D6.v_square" format="1">
  <advance width="350"/>
  <outline>
    <contour>
      <point x="390.0" y="-149" type="line"/>
      <point x="164.0" y="-149" type="line" smooth="yes"/>
      <point x="141.0" y="-149"/>
      <point x="130.0" y="-138"/>
      <point x="130.0" y="-115" type="curve" smooth="yes"/>
      <point x="130.0" y="837" type="line" smooth="yes"/>
      <point x="130.0" y="860"/>
      <point x="141.0" y="871"/>
      <point x="164.0" y="871" type="curve" smooth="yes"/>
      <point x="390.0" y="871" type="line"/>
      <point x="390.0" y="881" type="line"/>
      <point x="164.0" y="881" type="line" smooth="yes"/>
      <point x="135.0" y="881"/>
      <point x="120.0" y="866"/>
      <point x="120.0" y="837" type="curve" smooth="yes"/>
      <point x="120.0" y="-115" type="line" smooth="yes"/>
      <point x="120.0" y="-144"/>
      <point x="135.0" y="-159"/>
      <point x="164.0" y="-159" type="curve" smooth="yes"/>
      <point x="390.0" y="-159" type="line"/>
    </contour>
  </outline>
</glyph>
<glyph name="uni25D6.wings" format="1">
  <advance width="1000"/>
  <outline>
    <contour>
      <point x="-10.0" y="850" type="line"/>
      <point x="-20.0" y="850" type="line"/>
      <point x="-20.0" y="807" type="line" smooth="yes"/>
      <point x="-20.0" y="697"/>
      <point x="-76.0" y="634"/>
      <point x="-194.0" y="634" type="curve" smooth="yes"/>
      <point x="-206.0" y="634"/>
      <point x="-210.0" y="630"/>
      <point x="-210.0" y="618" type="curve" smooth="yes"/>
      <point x="-210.0" y="142" type="line" smooth="yes"/>
      <point x="-210.0" y="130"/>
      <point x="-206.0" y="126"/>
      <point x="-194.0" y="126" type="curve" smooth="yes"/>
      <point x="-20.0" y="126" type="line"/>
      <point x="-20.0" y="-34" type="line" smooth="yes"/>
      <point x="-20.0" y="-46"/>
      <point x="-16.0" y="-50"/>
      <point x="-4.0" y="-50" type="curve" smooth="yes"/>
      <point x="1004.0" y="-50" type="line" smooth="yes"/>
      <point x="1016.0" y="-50"/>
      <point x="1020.0" y="-46"/>
      <point x="1020.0" y="-34" type="curve" smooth="yes"/>
      <point x="1020.0" y="126" type="line"/>
      <point x="1194.0" y="126" type="line" smooth="yes"/>
      <point x="1206.0" y="126"/>
      <point x="1210.0" y="130"/>
      <point x="1210.0" y="142" type="curve" smooth="yes"/>
      <point x="1210.0" y="618" type="line" smooth="yes"/>
      <point x="1210.0" y="630"/>
      <point x="1206.0" y="634"/>
      <point x="1194.0" y="634" type="curve" smooth="yes"/>
      <point x="1076.0" y="634"/>
      <point x="1020.0" y="700"/>
      <point x="1020.0" y="814" type="curve" smooth="yes"/>
      <point x="1020.0" y="850" type="line"/>
      <point x="1010.0" y="850" type="line"/>
      <point x="1010.0" y="814" type="line" smooth="yes"/>
      <point x="1010.0" y="694"/>
      <point x="1070.0" y="624"/>
      <point x="1194.0" y="624" type="curve" smooth="yes"/>
      <point x="1198.0" y="624"/>
      <point x="1200.0" y="622"/>
      <point x="1200.0" y="618" type="curve" smooth="yes"/>
      <point x="1200.0" y="142" type="line" smooth="yes"/>
      <point x="1200.0" y="138"/>
      <point x="1198.0" y="136"/>
      <point x="1194.0" y="136" type="curve" smooth="yes"/>
      <point x="1010.0" y="136" type="line"/>
      <point x="1010.0" y="-34" type="line" smooth="yes"/>
      <point x="1010.0" y="-38"/>
      <point x="1008.0" y="-40"/>
      <point x="1004.0" y="-40" type="curve" smooth="yes"/>
      <point x="-4.0" y="-40" type="line" smooth="yes"/>
      <point x="-8.0" y="-40"/>
      <point x="-10.0" y="-38"/>
      <point x="-10.0" y="-34" type="curve" smooth="yes"/>
      <point x="-10.0" y="136" type="line"/>
      <point x="-194.0" y="136" type="line" smooth="yes"/>
      <point x="-198.0" y="136"/>
      <point x="-200.0" y="138"/>
      <point x="-200.0" y="142" type="curve" smooth="yes"/>
      <point x="-200.0" y="618" type="line" smooth="yes"/>
      <point x="-200.0" y="622"/>
      <point x="-198.0" y="624"/>
      <point x="-194.0" y="624" type="curve" smooth="yes"/>
      <point x="-70.0" y="624"/>
      <point x="-10.0" y="691"/>
      <point x="-10.0" y="807" type="curve" smooth="yes"/>
    </contour>
  </outline>
</glyph>
<glyph name="uni25D7.rounded" format="1">
  <advance width="1000"/>
  <outline>
    <contour>
      <point x="-10.0" y="145" type="line"/>
      <point x="-10.0" y="210" type="line" smooth="yes"/>
      <point x="-10.0" y="355"/>
      <point x="117.0" y="435"/>
      <point x="500.0" y="435" type="curve" smooth="yes"/>
      <point x="883.0" y="435"/>
      <point x="1010.0" y="355"/>
      <point x="1010.0" y="210" type="curve" smooth="yes"/>
      <point x="1010.0" y="145" type="line"/>
      <point x="1020.0" y="145" type="line"/>
      <point x="1020.0" y="210" type="line" smooth="yes"/>
      <point x="1020.0" y="357"/>
      <point x="900.0" y="445"/>
      <point x="500.0" y="445" type="curve" smooth="yes"/>
      <point x="100.0" y="445"/>
      <point x="-20.0" y="357"/>
      <point x="-20.0" y="210" type="curve" smooth="yes"/>
      <point x="-20.0" y="145" type="line"/>
    </contour>
  </outline>
</glyph>
<glyph name="uni25D7.square" format="1">
  <advance width="1000"/>
  <outline>
    <contour>
      <point x="-10.0" y="145" type="line"/>
      <point x="-10.0" y="371" type="line" smooth="yes"/>
      <point x="-10.0" y="394"/>
      <point x="1.0" y="405"/>
      <point x="24.0" y="405" type="curve" smooth="yes"/>
      <point x="976.0" y="405" type="line" smooth="yes"/>
      <point x="999.0" y="405"/>
      <point x="1010.0" y="394"/>
      <point x="1010.0" y="371" type="curve" smooth="yes"/>
      <point x="1010.0" y="145" type="line"/>
      <point x="1020.0" y="145" type="line"/>
      <point x="1020.0" y="371" type="line" smooth="yes"/>
      <point x="1020.0" y="400"/>
      <point x="1005.0" y="415"/>
      <point x="976.0" y="415" type="curve" smooth="yes"/>
      <point x="24.0" y="415" type="line" smooth="yes"/>
      <point x="-5.0" y="415"/>
      <point x="-20.0" y="400"/>
      <point x="-20.0" y="371" type="curve" smooth="yes"/>
      <point x="-20.0" y="145" type="line"/>
    </contour>
  </outline>
</glyph>
<glyph name="uni25D7.v_deco" format="1">
  <advance width="560"/>
  <outline>
    <contour>
      <point x="66.0" y="-249" type="curve" smooth="yes"/>
      <point x="144.0" y="-249" type="line" smooth="yes"/>
      <point x="156.0" y="-249"/>
      <point x="160.0" y="-245"/>
      <point x="160.0" y="-233" type="curve" smooth="yes"/>
      <point x="160.0" y="-189" type="line"/>
      <point x="180.0" y="-189" type="line" smooth="yes"/>
      <point x="246.0" y="-189"/>
      <point x="300.0" y="-135"/>
      <point x="300.0" y="-69" type="curve" smooth="yes"/>
      <point x="300.0" y="-52" type="line"/>
      <point x="317.0" y="-49" type="line" smooth="yes"/>
      <point x="425.0" y="-31"/>
      <point x="490.0" y="84"/>
      <point x="490.0" y="361" type="curve" smooth="yes"/>
      <point x="490.0" y="638"/>
      <point x="425.0" y="753"/>
      <point x="317.0" y="771" type="curve" smooth="yes"/>
      <point x="300.0" y="774" type="line"/>
      <point x="300.0" y="791" type="line" smooth="yes"/>
      <point x="300.0" y="857"/>
      <point x="246.0" y="911"/>
      <point x="180.0" y="911" type="curve" smooth="yes"/>
      <point x="160.0" y="911" type="line"/>
      <point x="160.0" y="955" type="line" smooth="yes"/>
      <point x="160.0" y="967"/>
      <point x="156.0" y="971"/>
      <point x="144.0" y="971" type="curve" smooth="yes"/>
      <point x="66.0" y="971" type="line" smooth="yes"/>
      <point x="54.0" y="971"/>
      <point x="50.0" y="967"/>
      <point x="50.0" y="955" type="curve" smooth="yes"/>
      <point x="50.0" y="-233" type="line" smooth="yes"/>
      <point x="50.0" y="-245"/>
      <point x="54.0" y="-249"/>
    </contour>
    <contour>
      <point x="144.0" y="-239" type="curve" smooth="yes"/>
      <point x="66.0" y="-239" type="line" smooth="yes"/>
      <point x="62.0" y="-239"/>
      <point x="60.0" y="-237"/>
      <point x="60.0" y="-233" type="curve" smooth="yes"/>
      <point x="60.0" y="955" type="line" smooth="yes"/>
      <point x="60.0" y="959"/>
      <point x="62.0" y="961"/>
      <point x="66.0" y="961" type="curve" smooth="yes"/>
      <point x="144.0" y="961" type="line" smooth="yes"/>
      <point x="148.0" y="961"/>
      <point x="150.0" y="959"/>
      <point x="150.0" y="955" type="curve" smooth="yes"/>
      <point x="150.0" y="901" type="line"/>
      <point x="180.0" y="901" type="line" smooth="yes"/>
      <point x="240.0" y="901"/>
      <point x="290.0" y="851"/>
      <point x="290.0" y="791" type="curve" smooth="yes"/>
      <point x="290.0" y="766" type="line"/>
      <point x="294.0" y="765" type="line"/>
      <point x="315.0" y="761" type="line" smooth="yes"/>
      <point x="421.0" y="743"/>
      <point x="480.0" y="626"/>
      <point x="480.0" y="361" type="curve" smooth="yes"/>
      <point x="480.0" y="96"/>
      <point x="421.0" y="-21"/>
      <point x="315.0" y="-39" type="curve" smooth="yes"/>
      <point x="290.0" y="-44" type="line"/>
      <point x="290.0" y="-69" type="line" smooth="yes"/>
      <point x="290.0" y="-129"/>
      <point x="240.0" y="-179"/>
      <point x="180.0" y="-179" type="curve" smooth="yes"/>
      <point x="150.0" y="-179" type="line"/>
      <point x="150.0" y="-233" type="line" smooth="yes"/>
      <point x="150.0" y="-237"/>
      <point x="148.0" y="-239"/>
    </contour>
  </outline>
</glyph>
<glyph name="uni25D7.v_spike" format="1">
  <advance width="350"/>
  <outline>
    <contour>
      <point x="118.0" y="102" type="curve" smooth="yes"/>
      <point x="225.0" y="-168" type="line" smooth="yes"/>
      <point x="226.0" y="-170"/>
      <point x="225.0" y="-171"/>
      <point x="217.0" y="-170" type="curve" smooth="yes"/>
      <point x="74.0" y="-153" type="line" smooth="yes"/>
      <point x="39.0" y="-149"/>
      <point x="33.0" y="-149"/>
      <point x="12.0" y="-149" type="curve" smooth="yes"/>
      <point x="-40.0" y="-149" type="line"/>
      <point x="-40.0" y="-159" type="line"/>
      <point x="12.0" y="-159" type="line" smooth="yes"/>
      <point x="33.0" y="-159"/>
      <point x="39.0" y="-159"/>
      <point x="72.0" y="-163" type="curve" smooth="yes"/>
      <point x="224.0" y="-181" type="line"/>
      <point x="234.0" y="-183"/>
      <point x="240.0" y="-176"/>
      <point x="235.0" y="-164" type="curve" smooth="yes"/>
      <point x="128.0" y="107" type="line" smooth="yes"/>
      <point x="122.0" y="122"/>
      <point x="123.0" y="144"/>
      <point x="135.0" y="158" type="curve" smooth="yes"/>
      <point x="292.0" y="347" type="line" smooth="yes"/>
      <point x="298.0" y="355"/>
      <point x="298.0" y="367"/>
      <point x="292.0" y="375" type="curve" smooth="yes"/>
      <point x="135.0" y="564" type="line" smooth="yes"/>
      <point x="123.0" y="578"/>
      <point x="121.0" y="600"/>
      <point x="128.0" y="615" type="curve" smooth="yes"/>
      <point x="233.0" y="882" type="line" smooth="yes"/>
      <point x="239.0" y="901"/>
      <point x="234.0" y="903"/>
      <point x="219.0" y="902" type="curve" smooth="yes"/>
      <point x="72.0" y="885" type="line" smooth="yes"/>
      <point x="39.0" y="881"/>
      <point x="33.0" y="881"/>
      <point x="12.0" y="881" type="curve" smooth="yes"/>
      <point x="-40.0" y="881" type="line"/>
      <point x="-40.0" y="871" type="line"/>
      <point x="12.0" y="871" type="line" smooth="yes"/>
      <point x="33.0" y="871"/>
      <point x="39.0" y="871"/>
      <point x="74.0" y="875" type="curve" smooth="yes"/>
      <point x="221.0" y="892" type="line" smooth="yes"/>
      <point x="226.0" y="893"/>
      <point x="225.0" y="889"/>
      <point x="223.0" y="886" type="curve" smooth="yes"/>
      <point x="118.0" y="619" type="line" smooth="yes"/>
      <point x="111.0" y="600"/>
      <point x="113.0" y="574"/>
      <point x="127.0" y="558" type="curve" smooth="yes"/>
      <point x="284.0" y="369" type="line" smooth="yes"/>
      <point x="288.0" y="365"/>
      <point x="288.0" y="357"/>
      <point x="284.0" y="353" type="curve" smooth="yes"/>
      <point x="127.0" y="164" type="line" smooth="yes"/>
      <point x="113.0" y="148"/>
      <point x="111.0" y="121"/>
    </contour>
  </outline>
</glyph>
<glyph name="uni25D7.v_square" format="1">
  <advance width="350"/>
  <outline>
    <contour>
      <point x="-40.0" y="-149" type="line"/>
      <point x="-40.0" y="-159" type="line"/>
      <point x="186.0" y="-159" type="line" smooth="yes"/>
      <point x="215.0" y="-159"/>
      <point x="230.0" y="-144"/>
      <point x="230.0" y="-115" type="curve" smooth="yes"/>
      <point x="230.0" y="837" type="line" smooth="yes"/>
      <point x="230.0" y="866"/>
      <point x="215.0" y="881"/>
      <point x="186.0" y="881" type="curve" smooth="yes"/>
      <point x="-40.0" y="881" type="line"/>
      <point x="-40.0" y="871" type="line"/>
      <point x="186.0" y="871" type="line" smooth="yes"/>
      <point x="209.0" y="871"/>
      <point x="220.0" y="860"/>
      <point x="220.0" y="837" type="curve" smooth="yes"/>
      <point x="220.0" y="-115" type="line" smooth="yes"/>
      <point x="220.0" y="-138"/>
      <point x="209.0" y="-149"/>
      <point x="186.0" y="-149" type="curve" smooth="yes"/>
    </contour>
  </outline>
</glyph>
<glyph name="uni25D7.v_wings" format="1">
  <advance width="900"/>
  <outline>
    <contour>
      <point x="-40.0" y="871" type="line"/>
      <point x="3.0" y="871" type="line" smooth="yes"/>
      <point x="119.0" y="871"/>
      <point x="186.0" y="931"/>
      <point x="186.0" y="1055" type="curve" smooth="yes"/>
      <point x="186.0" y="1059"/>
      <point x="188.0" y="1061"/>
      <point x="192.0" y="1061" type="curve" smooth="yes"/>
      <point x="668.0" y="1061" type="line" smooth="yes"/>
      <point x="672.0" y="1061"/>
      <point x="674.0" y="1059"/>
      <point x="674.0" y="1055" type="curve" smooth="yes"/>
      <point x="674.0" y="871" type="line"/>
      <point x="844.0" y="871" type="line" smooth="yes"/>
      <point x="848.0" y="871"/>
      <point x="850.0" y="869"/>
      <point x="850.0" y="865" type="curve" smooth="yes"/>
      <point x="850.0" y="-143" type="line" smooth="yes"/>
      <point x="850.0" y="-147"/>
      <point x="848.0" y="-149"/>
      <point x="844.0" y="-149" type="curve" smooth="yes"/>
      <point x="674.0" y="-149" type="line"/>
      <point x="674.0" y="-333" type="line" smooth="yes"/>
      <point x="674.0" y="-337"/>
      <point x="672.0" y="-339"/>
      <point x="668.0" y="-339" type="curve" smooth="yes"/>
      <point x="192.0" y="-339" type="line" smooth="yes"/>
      <point x="188.0" y="-339"/>
      <point x="186.0" y="-337"/>
      <point x="186.0" y="-333" type="curve" smooth="yes"/>
      <point x="186.0" y="-209"/>
      <point x="116.0" y="-149"/>
      <point x="-4.0" y="-149" type="curve" smooth="yes"/>
      <point x="-40.0" y="-149" type="line"/>
      <point x="-40.0" y="-159" type="line"/>
      <point x="-4.0" y="-159" type="line" smooth="yes"/>
      <point x="110.0" y="-159"/>
      <point x="176.0" y="-215"/>
      <point x="176.0" y="-333" type="curve" smooth="yes"/>
      <point x="176.0" y="-345"/>
      <point x="180.0" y="-349"/>
      <point x="192.0" y="-349" type="curve" smooth="yes"/>
      <point x="668.0" y="-349" type="line" smooth="yes"/>
      <point x="680.0" y="-349"/>
      <point x="684.0" y="-345"/>
      <point x="684.0" y="-333" type="curve" smooth="yes"/>
      <point x="684.0" y="-159" type="line"/>
      <point x="844.0" y="-159" type="line" smooth="yes"/>
      <point x="856.0" y="-159"/>
      <point x="860.0" y="-155"/>
      <point x="860.0" y="-143" type="curve" smooth="yes"/>
      <point x="860.0" y="865" type="line" smooth="yes"/>
      <point x="860.0" y="877"/>
      <point x="856.0" y="881"/>
      <point x="844.0" y="881" type="curve" smooth="yes"/>
      <point x="684.0" y="881" type="line"/>
      <point x="684.0" y="1055" type="line" smooth="yes"/>
      <point x="684.0" y="1067"/>
      <point x="680.0" y="1071"/>
      <point x="668.0" y="1071" type="curve" smooth="yes"/>
      <point x="192.0" y="1071" type="line" smooth="yes"/>
      <point x="180.0" y="1071"/>
      <point x="176.0" y="1067"/>
      <point x="176.0" y="1055" type="curve" smooth="yes"/>
      <point x="176.0" y="937"/>
      <point x="113.0" y="881"/>
      <point x="3.0" y="881" type="curve" smooth="yes"/>
      <point x="-40.0" y="881" type="line"/>
    </contour>
  </outline>
</glyph>
<glyph name="uni26D7.wings" format="1">
  <advance width="1000"/>
  <outline>
    <contour>
      <point x="-10.0" y="-130" type="line"/>
      <point x="-10.0" y="-87" type="line" smooth="yes"/>
      <point x="-10.0" y="29"/>
      <point x="-70.0" y="96"/>
      <point x="-194.0" y="96" type="curve" smooth="yes"/>
      <point x="-198.0" y="96"/>
      <point x="-200.0" y="98"/>
      <point x="-200.0" y="102" type="curve" smooth="yes"/>
      <point x="-200.0" y="578" type="line" smooth="yes"/>
      <point x="-200.0" y="582"/>
      <point x="-198.0" y="584"/>
      <point x="-194.0" y="584" type="curve" smooth="yes"/>
      <point x="-10.0" y="584" type="line"/>
      <point x="-10.0" y="754" type="line" smooth="yes"/>
      <point x="-10.0" y="758"/>
      <point x="-8.0" y="760"/>
      <point x="-4.0" y="760" type="curve" smooth="yes"/>
      <point x="1004.0" y="760" type="line" smooth="yes"/>
      <point x="1008.0" y="760"/>
      <point x="1010.0" y="758"/>
      <point x="1010.0" y="754" type="curve" smooth="yes"/>
      <point x="1010.0" y="584" type="line"/>
      <point x="1194.0" y="584" type="line" smooth="yes"/>
      <point x="1198.0" y="584"/>
      <point x="1200.0" y="582"/>
      <point x="1200.0" y="578" type="curve" smooth="yes"/>
      <point x="1200.0" y="102" type="line" smooth="yes"/>
      <point x="1200.0" y="98"/>
      <point x="1198.0" y="96"/>
      <point x="1194.0" y="96" type="curve" smooth="yes"/>
      <point x="1070.0" y="96"/>
      <point x="1010.0" y="26"/>
      <point x="1010.0" y="-94" type="curve" smooth="yes"/>
      <point x="1010.0" y="-130" type="line"/>
      <point x="1020.0" y="-130" type="line"/>
      <point x="1020.0" y="-94" type="line" smooth="yes"/>
      <point x="1020.0" y="20"/>
      <point x="1076.0" y="86"/>
      <point x="1194.0" y="86" type="curve" smooth="yes"/>
      <point x="1206.0" y="86"/>
      <point x="1210.0" y="90"/>
      <point x="1210.0" y="102" type="curve" smooth="yes"/>
      <point x="1210.0" y="578" type="line" smooth="yes"/>
      <point x="1210.0" y="590"/>
      <point x="1206.0" y="594"/>
      <point x="1194.0" y="594" type="curve" smooth="yes"/>
      <point x="1020.0" y="594" type="line"/>
      <point x="1020.0" y="754" type="line" smooth="yes"/>
      <point x="1020.0" y="766"/>
      <point x="1016.0" y="770"/>
      <point x="1004.0" y="770" type="curve" smooth="yes"/>
      <point x="-4.0" y="770" type="line" smooth="yes"/>
      <point x="-16.0" y="770"/>
      <point x="-20.0" y="766"/>
      <point x="-20.0" y="754" type="curve" smooth="yes"/>
      <point x="-20.0" y="594" type="line"/>
      <point x="-194.0" y="594" type="line" smooth="yes"/>
      <point x="-206.0" y="594"/>
      <point x="-210.0" y="590"/>
      <point x="-210.0" y="578" type="curve" smooth="yes"/>
      <point x="-210.0" y="102" type="line" smooth="yes"/>
      <point x="-210.0" y="90"/>
      <point x="-206.0" y="86"/>
      <point x="-194.0" y="86" type="curve" smooth="yes"/>
      <point x="-76.0" y="86"/>
      <point x="-20.0" y="23"/>
      <point x="-20.0" y="-87" type="curve" smooth="yes"/>
      <point x="-20.0" y="-130" type="line"/>
    </contour>
  </outline>
</glyph>
<glyph name="uni27A1.s" format="1">
  <advance width="1000"/>
  <outline>
    <contour>
      <point x="841.0" y="-149" type="line"/>
      <point x="764.0" y="-149" type="line"/>
      <point x="764.0" y="-320" type="line" smooth="yes"/>
      <point x="764.0" y="-341"/>
      <point x="746.0" y="-353"/>
      <point x="727.0" y="-353" type="curve" smooth="yes"/>
      <point x="704.0" y="-353"/>
      <point x="679.0" y="-339"/>
      <point x="658.0" y="-312" type="curve" smooth="yes"/>
      <point x="222.0" y="268" type="line" smooth="yes"/>
      <point x="200.0" y="296"/>
      <point x="190.0" y="328"/>
      <point x="190.0" y="360" type="curve" smooth="yes"/>
      <point x="190.0" y="392"/>
      <point x="200.0" y="424"/>
      <point x="222.0" y="452" type="curve" smooth="yes"/>
      <point x="658.0" y="1032" type="line" smooth="yes"/>
      <point x="678.0" y="1059"/>
      <point x="704.0" y="1073"/>
      <point x="727.0" y="1073" type="curve" smooth="yes"/>
      <point x="746.0" y="1073"/>
      <point x="764.0" y="1061"/>
      <point x="764.0" y="1040" type="curve" smooth="yes"/>
      <point x="764.0" y="871" type="line"/>
      <point x="841.0" y="871" type="line"/>
      <point x="841.0" y="881" type="line"/>
      <point x="774.0" y="881" type="line"/>
      <point x="774.0" y="1040" type="line" smooth="yes"/>
      <point x="774.0" y="1067"/>
      <point x="752.0" y="1083"/>
      <point x="727.0" y="1083" type="curve" smooth="yes"/>
      <point x="702.0" y="1083"/>
      <point x="672.0" y="1069"/>
      <point x="650.0" y="1038" type="curve" smooth="yes"/>
      <point x="214.0" y="458" type="line" smooth="yes"/>
      <point x="190.0" y="428"/>
      <point x="180.0" y="394"/>
      <point x="180.0" y="360" type="curve" smooth="yes"/>
      <point x="180.0" y="326"/>
      <point x="190.0" y="292"/>
      <point x="214.0" y="262" type="curve" smooth="yes"/>
      <point x="650.0" y="-318" type="line" smooth="yes"/>
      <point x="673.0" y="-349"/>
      <point x="702.0" y="-363"/>
      <point x="727.0" y="-363" type="curve" smooth="yes"/>
      <point x="752.0" y="-363"/>
      <point x="774.0" y="-347"/>
      <point x="774.0" y="-320" type="curve" smooth="yes"/>
      <point x="774.0" y="-159" type="line"/>
      <point x="841.0" y="-159" type="line"/>
    </contour>
  </outline>
</glyph>
<glyph name="uni27A1.w" format="1">
  <advance width="998"/>
  <outline>
    <contour>
      <point x="-10.0" y="724" type="line"/>
      <point x="-20.0" y="724" type="line"/>
      <point x="-20.0" y="657" type="line"/>
      <point x="-181.0" y="657" type="line" smooth="yes"/>
      <point x="-208.0" y="657"/>
      <point x="-224.0" y="635"/>
      <point x="-224.0" y="610" type="curve" smooth="yes"/>
      <point x="-224.0" y="585"/>
      <point x="-210.0" y="556"/>
      <point x="-179.0" y="533" type="curve" smooth="yes"/>
      <point x="401.0" y="97" type="line" smooth="yes"/>
      <point x="431.0" y="73"/>
      <point x="465.0" y="63"/>
      <point x="499.0" y="63" type="curve" smooth="yes"/>
      <point x="533.0" y="63"/>
      <point x="567.0" y="73"/>
      <point x="597.0" y="97" type="curve" smooth="yes"/>
      <point x="1177.0" y="533" type="line" smooth="yes"/>
      <point x="1208.0" y="555"/>
      <point x="1222.0" y="585"/>
      <point x="1222.0" y="610" type="curve" smooth="yes"/>
      <point x="1222.0" y="635"/>
      <point x="1206.0" y="657"/>
      <point x="1179.0" y="657" type="curve" smooth="yes"/>
      <point x="1020.0" y="657" type="line"/>
      <point x="1020.0" y="724" type="line"/>
      <point x="1010.0" y="724" type="line"/>
      <point x="1010.0" y="647" type="line"/>
      <point x="1179.0" y="647" type="line" smooth="yes"/>
      <point x="1200.0" y="647"/>
      <point x="1212.0" y="629"/>
      <point x="1212.0" y="610" type="curve" smooth="yes"/>
      <point x="1212.0" y="587"/>
      <point x="1198.0" y="561"/>
      <point x="1171.0" y="541" type="curve" smooth="yes"/>
      <point x="591.0" y="105" type="line" smooth="yes"/>
      <point x="563.0" y="83"/>
      <point x="531.0" y="73"/>
      <point x="499.0" y="73" type="curve" smooth="yes"/>
      <point x="467.0" y="73"/>
      <point x="435.0" y="83"/>
      <point x="407.0" y="105" type="curve" smooth="yes"/>
      <point x="-173.0" y="541" type="line" smooth="yes"/>
      <point x="-200.0" y="562"/>
      <point x="-214.0" y="587"/>
      <point x="-214.0" y="610" type="curve" smooth="yes"/>
      <point x="-214.0" y="629"/>
      <point x="-202.0" y="647"/>
      <point x="-181.0" y="647" type="curve" smooth="yes"/>
      <point x="-10.0" y="647" type="line"/>
    </contour>
  </outline>
</glyph>
<glyph name="uni2B1B.chevron_e" format="1">
  <advance width="1000"/>
  <outline>
    <contour>
      <point x="1020.0" y="-247" type="curve" smooth="yes"/>
      <point x="1020.0" y="755" type="line" smooth="yes"/>
      <point x="1020.0" y="769"/>
      <point x="1014.0" y="776"/>
      <point x="997.0" y="783" type="curve" smooth="yes"/>
      <point x="523.0" y="972" type="line"/>
      <point x="510.0" y="976"/>
      <point x="493.0" y="976"/>
      <point x="480.0" y="972" type="curve"/>
      <point x="3.0" y="783" type="line" smooth="yes"/>
      <point x="-14.0" y="776"/>
      <point x="-20.0" y="769"/>
      <point x="-20.0" y="755" type="curve" smooth="yes"/>
      <point x="-20.0" y="-243" type="line" smooth="yes"/>
      <point x="-20.0" y="-255"/>
      <point x="-16.0" y="-262"/>
      <point x="-7.0" y="-259" type="curve" smooth="yes"/>
      <point x="500.0" y="-58" type="line"/>
      <point x="1008.0" y="-259" type="line"/>
      <point x="1015.0" y="-262"/>
      <point x="1020.0" y="-259"/>
    </contour>
    <contour>
      <point x="500.0" y="-47" type="line"/>
      <point x="498.0" y="-47" type="line"/>
      <point x="-10.0" y="-249" type="line"/>
      <point x="-10.0" y="755" type="line"/>
      <point x="-10.0" y="765"/>
      <point x="-2.0" y="770"/>
      <point x="7.0" y="773" type="curve" smooth="yes"/>
      <point x="484.0" y="962" type="line"/>
      <point x="495.0" y="966"/>
      <point x="508.0" y="966"/>
      <point x="519.0" y="962" type="curve"/>
      <point x="993.0" y="773" type="line" smooth="yes"/>
      <point x="1002.0" y="770"/>
      <point x="1010.0" y="765"/>
      <point x="1010.0" y="755" type="curve" smooth="yes"/>
      <point x="1010.0" y="-248" type="line"/>
    </contour>
  </outline>
</glyph>
<glyph name="uni2B1B.chevron_s" format="1">
  <advance width="986"/>
  <outline>
    <contour>
      <point x="-114.0" y="-163" type="curve" smooth="yes"/>
      <point x="888.0" y="-163" type="line" smooth="yes"/>
      <point x="902.0" y="-163"/>
      <point x="909.0" y="-157"/>
      <point x="916.0" y="-140" type="curve" smooth="yes"/>
      <point x="1105.0" y="334" type="line"/>
      <point x="1109.0" y="347"/>
      <point x="1109.0" y="364"/>
      <point x="1105.0" y="377" type="curve"/>
      <point x="916.0" y="854" type="line" smooth="yes"/>
      <point x="909.0" y="871"/>
      <point x="902.0" y="877"/>
      <point x="888.0" y="877" type="curve" smooth="yes"/>
      <point x="-110.0" y="877" type="line" smooth="yes"/>
      <point x="-122.0" y="877"/>
      <point x="-129.0" y="873"/>
      <point x="-126.0" y="864" type="curve" smooth="yes"/>
      <point x="75.0" y="357" type="line"/>
      <point x="-126.0" y="-151" type="line"/>
      <point x="-129.0" y="-158"/>
      <point x="-126.0" y="-163"/>
    </contour>
    <contour>
      <point x="86.0" y="357" type="line"/>
      <point x="86.0" y="359" type="line"/>
      <point x="-116.0" y="867" type="line"/>
      <point x="888.0" y="867" type="line"/>
      <point x="898.0" y="867"/>
      <point x="903.0" y="859"/>
      <point x="906.0" y="850" type="curve" smooth="yes"/>
      <point x="1095.0" y="373" type="line"/>
      <point x="1099.0" y="362"/>
      <point x="1099.0" y="349"/>
      <point x="1095.0" y="338" type="curve"/>
      <point x="906.0" y="-136" type="line" smooth="yes"/>
      <point x="903.0" y="-145"/>
      <point x="898.0" y="-153"/>
      <point x="888.0" y="-153" type="curve" smooth="yes"/>
      <point x="-115.0" y="-153" type="line"/>
    </contour>
  </outline>
</glyph>
<glyph name="uni2B1B.chevron_w" format="1">
  <advance width="1000"/>
  <outline>
    <contour>
      <point x="1020.0" y="971" type="line" smooth="yes"/>
      <point x="1020.0" y="983"/>
      <point x="1015.0" y="986"/>
      <point x="1008.0" y="983" type="curve"/>
      <point x="500.0" y="782" type="line"/>
      <point x="-7.0" y="983" type="line" smooth="yes"/>
      <point x="-16.0" y="986"/>
      <point x="-20.0" y="979"/>
      <point x="-20.0" y="967" type="curve" smooth="yes"/>
      <point x="-20.0" y="-31" type="line" smooth="yes"/>
      <point x="-20.0" y="-45"/>
      <point x="-14.0" y="-52"/>
      <point x="3.0" y="-59" type="curve" smooth="yes"/>
      <point x="480.0" y="-248" type="line"/>
      <point x="493.0" y="-252"/>
      <point x="510.0" y="-252"/>
      <point x="523.0" y="-248" type="curve"/>
      <point x="997.0" y="-59" type="line" smooth="yes"/>
      <point x="1014.0" y="-52"/>
      <point x="1020.0" y="-45"/>
      <point x="1020.0" y="-31" type="curve" smooth="yes"/>
    </contour>
    <contour>
      <point x="500.0" y="771" type="line"/>
      <point x="1010.0" y="972" type="line"/>
      <point x="1010.0" y="-31" type="line" smooth="yes"/>
      <point x="1010.0" y="-41"/>
      <point x="1002.0" y="-46"/>
      <point x="993.0" y="-49" type="curve" smooth="yes"/>
      <point x="519.0" y="-238" type="line"/>
      <point x="508.0" y="-242"/>
      <point x="495.0" y="-242"/>
      <point x="484.0" y="-238" type="curve"/>
      <point x="7.0" y="-49" type="line" smooth="yes"/>
      <point x="-2.0" y="-46"/>
      <point x="-10.0" y="-41"/>
      <point x="-10.0" y="-31" type="curve"/>
      <point x="-10.0" y="973" type="line"/>
      <point x="498.0" y="771" type="line"/>
    </contour>
  </outline>
</glyph>
<glyph name="uni2B1B.semichevron_e" format="1">
  <advance width="1000"/>
  <outline>
    <contour>
      <point x="-10.0" y="725" type="line"/>
      <point x="-20.0" y="725" type="line"/>
      <point x="-20.0" y="70" type="line" smooth="yes"/>
      <point x="-20.0" y="57"/>
      <point x="-9.0" y="53"/>
      <point x="5.0" y="58" type="curve" smooth="yes"/>
      <point x="500.0" y="255" type="line"/>
      <point x="507.0" y="252" type="line"/>
      <point x="991.0" y="60" type="line" smooth="yes"/>
      <point x="1004.0" y="55"/>
      <point x="1020.0" y="56"/>
      <point x="1020.0" y="70" type="curve" smooth="yes"/>
      <point x="1020.0" y="725" type="line"/>
      <point x="1010.0" y="725" type="line"/>
      <point x="1010.0" y="70" type="line" smooth="yes"/>
      <point x="1010.0" y="62"/>
      <point x="996.0" y="69"/>
      <point x="995.0" y="70" type="curve" smooth="yes"/>
      <point x="511.0" y="262" type="line"/>
      <point x="500.0" y="266" type="line"/>
      <point x="498.0" y="266" type="line"/>
      <point x="1.0" y="68" type="line" smooth="yes"/>
      <point x="-1.0" y="67"/>
      <point x="-10.0" y="63"/>
      <point x="-10.0" y="70" type="curve" smooth="yes"/>
    </contour>
  </outline>
</glyph>
<glyph name="uni2B1B.trapezoid_w" format="1">
  <advance width="1000"/>
  <outline>
    <contour>
      <point x="-20.0" y="882" type="line"/>
      <point x="-20.0" y="-260" type="line"/>
      <point x="1020.0" y="-54" type="line"/>
      <point x="1020.0" y="882" type="line"/>
    </contour>
    <contour>
      <point x="-10.0" y="-248" type="line"/>
      <point x="-10.0" y="872" type="line"/>
      <point x="1010.0" y="872" type="line"/>
      <point x="1010.0" y="-46" type="line"/>
    </contour>
  </outline>
</glyph>
<glyph name="uni2B24.salt" format="1">
  <advance width="1000"/>
  <outline>
    <contour>
      <point x="824.0" y="879" type="curve" smooth="yes"/>
      <point x="823.0" y="880" type="line"/>
      <point x="176.0" y="880" type="line"/>
      <point x="175.0" y="879" type="line" smooth="yes"/>
      <point x="26.0" y="750"/>
      <point x="-50.0" y="555"/>
      <point x="-50.0" y="360" type="curve" smooth="yes"/>
      <point x="-50.0" y="165"/>
      <point x="26.0" y="-30"/>
      <point x="175.0" y="-159" type="curve" smooth="yes"/>
      <point x="176.0" y="-160" type="line"/>
      <point x="824.0" y="-160" type="line"/>
      <point x="825.0" y="-159" type="line" smooth="yes"/>
      <point x="974.0" y="-33"/>
      <point x="1050.0" y="166"/>
      <point x="1050.0" y="363" type="curve" smooth="yes"/>
      <point x="1050.0" y="559"/>
      <point x="976.0" y="755"/>
    </contour>
    <contour>
      <point x="-40.0" y="360" type="curve" smooth="yes"/>
      <point x="-40.0" y="552"/>
      <point x="34.0" y="743"/>
      <point x="180.0" y="870" type="curve"/>
      <point x="819.0" y="870" type="line"/>
      <point x="968.0" y="748"/>
      <point x="1040.0" y="554"/>
      <point x="1040.0" y="363" type="curve" smooth="yes"/>
      <point x="1040.0" y="169"/>
      <point x="966.0" y="-26"/>
      <point x="820.0" y="-150" type="curve"/>
      <point x="180.0" y="-150" type="line"/>
      <point x="34.0" y="-24"/>
      <point x="-40.0" y="167"/>
    </contour>
  </outline>
</glyph>
